<svg width="96" height="30" fill="none" xmlns="http://www.w3.org/2000/svg"><path fill-rule="evenodd" clip-rule="evenodd" d="M15.069 19.105c7.091 4.223 15.86 6.763 24.917 6.763 6.108 0 12.828-1.293 19.006-3.978.934-.405 1.714.626.802 1.32-5.514 4.159-13.506 6.378-20.387 6.378-9.648 0-18.333-3.652-24.904-9.727-.517-.477-.054-1.128.566-.756zm49.371-.415c.603.765-.157 6.07-3.118 8.603-.455.389-.888.182-.686-.334.665-1.7 2.156-5.508 1.45-6.434-.702-.922-4.659-.435-6.435-.22-.54.068-.623-.414-.136-.76 3.151-2.27 8.322-1.616 8.925-.855zM74.84.47c4.357 0 6.715 3.83 6.715 8.7 0 4.705-2.606 8.438-6.715 8.438-4.28 0-6.609-3.83-6.609-8.603 0-4.802 2.359-8.534 6.609-8.534zM46.486.324c1.43 0 3.296.389 4.424 1.496 1.357 1.297 1.302 3.006 1.293 4.874v4.98c0 1.408.57 2.025 1.106 2.786.186.27.227.596-.012.799-.599.511-1.664 1.462-2.251 1.995l-.004-.009a.602.602 0 01-.694.072c-.975-.828-1.152-1.213-1.685-2.003-1.61 1.682-2.755 2.185-4.84 2.185-2.474 0-4.395-1.56-4.395-4.684 0-2.439 1.289-4.1 3.13-4.912 1.595-.718 3.821-.845 5.523-1.044V6.47c0-.714.053-1.56-.36-2.177-.355-.554-1.04-.782-1.648-.782-1.119 0-2.114.588-2.358 1.805-.05.27-.244.537-.512.55l-2.846-.313c-.24-.055-.508-.254-.438-.63.653-3.534 3.775-4.6 6.567-4.6zM7.99.323c1.429 0 3.295.389 4.423 1.496 1.429 1.365 1.293 3.187 1.293 5.17v4.684c0 1.408.57 2.025 1.107 2.786.19.27.23.596-.009.799a120.16 120.16 0 00-2.25 1.995l-.009-.009a.602.602 0 01-.694.072c-.975-.828-1.148-1.213-1.685-2.003-1.61 1.682-2.75 2.185-4.84 2.185-2.47 0-4.395-1.56-4.395-4.684 0-2.439 1.293-4.1 3.13-4.912 1.595-.718 3.821-.845 5.523-1.044v-.389c0-.714.053-1.56-.355-2.177-.36-.554-1.045-.782-1.648-.782-1.12 0-2.12.588-2.363 1.805-.05.27-.243.537-.508.55l-2.85-.313c-.24-.055-.503-.254-.437-.63.656-3.534 3.775-4.6 6.567-4.6zM32.729.47c1.23 0 2.577.52 3.399 1.686.93 1.298.74 3.183.74 4.836l-.005 9.736a.56.56 0 01-.566.558h-2.932a.565.565 0 01-.529-.558V8.553c0-.65.058-2.274-.082-2.891-.22-1.036-.876-1.328-1.727-1.328-.71 0-1.454.486-1.755 1.264-.234.605-.27 1.527-.273 2.319v8.812a.56.56 0 01-.565.558H25.5a.562.562 0 01-.528-.558l-.005-8.176c0-1.72.277-4.253-1.808-4.253-1.9 0-2.023 2-2.029 3.7v8.729a.56.56 0 01-.565.558h-2.937a.56.56 0 01-.524-.512V1.35c0-.309.252-.554.566-.554h2.738a.559.559 0 01.533.516v2.016h.053C21.71 1.38 23.052.471 24.861.471c1.838 0 2.986.908 3.812 2.857.71-1.949 2.325-2.857 4.056-2.857zm58.887 0c1.318 0 2.602.486 3.428 1.817.768 1.235.768 3.31.768 4.803v9.71a.568.568 0 01-.565.486h-2.945a.561.561 0 01-.52-.486V8.422c0-1.687.19-4.155-1.838-4.155-.715 0-1.372.49-1.698 1.234-.413.943-.467 1.881-.467 2.921v8.307a.57.57 0 01-.574.558h-2.924a.565.565 0 01-.529-.558l-.004-15.43a.56.56 0 01.566-.503h2.722c.256.013.467.19.524.431v2.36h.054C88.436 1.476 89.588.47 91.616.47zM65.972.754c.31 0 .558.228.558.558v1.89c-.004.316-.264.73-.727 1.386L60.8 11.897c1.859-.046 3.82.237 5.506 1.209.38.22.483.541.512.858v2.355c0 .321-.347.697-.71.503-2.97-1.594-6.914-1.767-10.198.017-.334.186-.685-.186-.685-.508v-2.236c0-.36.004-.972.355-1.517l5.794-8.506h-5.042a.54.54 0 01-.558-.554V1.312c0-.334.248-.558.545-.558h9.652zM48.081 9.268c-2.127 0-4.37.465-4.37 3.026 0 1.298.66 2.177 1.788 2.177.822 0 1.566-.52 2.032-1.365.578-1.04.55-2.016.55-3.187v-.651zm-38.497 0c-2.123 0-4.366.465-4.366 3.026 0 1.298.657 2.177 1.784 2.177.826 0 1.566-.52 2.032-1.365.579-1.04.55-2.016.55-3.187v-.651zm65.28-5.648c-2.164 0-2.3 3.018-2.3 4.9 0 1.885-.029 5.91 2.276 5.91 2.275 0 2.383-3.247 2.383-5.226 0-1.302-.054-2.857-.438-4.092-.33-1.074-.987-1.492-1.92-1.492z" fill="#747873"/></svg>