<svg width="95" height="15" fill="none" xmlns="http://www.w3.org/2000/svg"><path d="M14.054 5.622a.681.681 0 00-.584-.46l-3.836-.309-1.66-3.716A.677.677 0 007.36.734a.666.666 0 00-.614.402l-1.66 3.717-3.836.309a.668.668 0 00-.58.447.688.688 0 00.164.718L3.67 9.123l-1.003 4.39a.688.688 0 00.273.714.668.668 0 00.756.006l3.665-2.47 3.664 2.47a.668.668 0 001.009-.345.689.689 0 00.011-.407l-1.23-4.356 3.052-2.778a.687.687 0 00.187-.725zm20.188 0a.681.681 0 00-.585-.46l-3.836-.309-1.66-3.716a.678.678 0 00-.613-.403.666.666 0 00-.613.402l-1.66 3.717-3.836.309a.668.668 0 00-.58.447.689.689 0 00.163.718l2.835 2.796-1.003 4.39a.69.69 0 00.274.714.668.668 0 00.756.006l3.664-2.47 3.664 2.47a.668.668 0 001.01-.345.689.689 0 00.01-.407l-1.23-4.356 3.052-2.778a.687.687 0 00.188-.725zm20.187 0a.681.681 0 00-.584-.46l-3.836-.309-1.66-3.716a.678.678 0 00-.613-.403.666.666 0 00-.613.402l-1.66 3.717-3.837.309a.668.668 0 00-.58.447.689.689 0 00.164.718l2.835 2.796-1.003 4.39a.69.69 0 00.273.714.668.668 0 00.757.006l3.663-2.47 3.665 2.47a.668.668 0 001.009-.345.689.689 0 00.011-.407l-1.23-4.356 3.052-2.778a.687.687 0 00.187-.725zm20.188 0a.681.681 0 00-.585-.46l-3.836-.309-1.66-3.716a.678.678 0 00-.613-.403.666.666 0 00-.613.402l-1.66 3.717-3.836.309a.668.668 0 00-.58.447.689.689 0 00.163.718l2.835 2.796-1.003 4.39a.69.69 0 00.273.714.668.668 0 00.757.006l3.664-2.47 3.664 2.47a.668.668 0 001.01-.345.689.689 0 00.01-.407l-1.23-4.356 3.053-2.778a.687.687 0 00.186-.725z" fill="#EEA404"/><path d="M94.804 5.622a.681.681 0 00-.584-.46l-3.836-.309-1.66-3.716a.678.678 0 00-.613-.403.666.666 0 00-.614.402l-1.66 3.717-3.836.309a.668.668 0 00-.58.447.689.689 0 00.164.718l2.835 2.796-1.003 4.39a.69.69 0 00.273.714.668.668 0 00.757.006l3.663-2.47 3.665 2.47a.668.668 0 001.009-.345.689.689 0 00.011-.407l-1.23-4.356 3.052-2.778a.687.687 0 00.187-.725z" fill="#A7A5A0"/></svg>