<svg width="47" height="47" fill="none" xmlns="http://www.w3.org/2000/svg"><g clip-path="url(#clip0_457_587)"><path d="M46.156 17.864l-6.231-6.231 1.438-1.438a.678.678 0 000-.96l-.48-.479 3.356-3.355a.678.678 0 000-.959L42.32 2.525a.678.678 0 00-.959 0L38.008 5.88l-.48-.48a.678.678 0 00-.958 0l-1.44 1.44L28.899.607a.678.678 0 00-.959 0L22.188 6.36a.678.678 0 000 .96l7.19 7.19-15.203 15.203-7.19-7.19a.678.678 0 00-.96 0L.273 28.274a.678.678 0 000 .959l6.232 6.232-1.438 1.438a.678.678 0 000 .959l.479.479-3.356 3.356a.678.678 0 000 .958l1.918 1.918a.678.678 0 00.959 0l3.355-3.356.48.48a.678.678 0 00.958 0l1.439-1.439 6.231 6.232a.676.676 0 00.96 0l5.752-5.752a.678.678 0 000-.959l-7.19-7.19 15.203-15.204 7.19 7.19a.676.676 0 00.959 0l5.753-5.752a.678.678 0 000-.959zM41.842 3.963l.959.958-2.877 2.877-.958-.96 2.876-2.875zm-4.794 2.876l2.876 2.876-.958.959-2.877-2.876.96-.96zM4.588 25.877l16.298 16.3-.959.958L3.628 26.836l.96-.959zm0 17.258l-.96-.959L6.505 39.3l.958.959-2.876 2.876zm4.793-2.876l-2.876-2.877.958-.958L10.34 39.3l-.96.959zm8.629 4.793L1.71 28.754l.959-.96 16.299 16.3-.96.958zm3.835-3.835L5.546 24.92l.959-.96 16.299 16.3-.96.958zm-5.753-9.587l-.958-.959 15.203-15.203.959.958L16.092 31.63zm23.833-8.492l-16.3-16.3.96-.958 1.438 1.438a.675.675 0 00.959 0 .678.678 0 000-.958l-1.44-1.44.959-.958L42.8 20.261l-.959.958L28.899 8.277a.678.678 0 00-.959.959l12.943 12.943-.959.959zm3.835-3.835l-16.3-16.3.96-.958 16.298 16.299-.959.959z" fill="#fff"/></g><defs><clipPath id="clip0_457_587"><path fill="#fff" transform="translate(.075 .409)" d="M0 0h46.281v46.281H0z"/></clipPath></defs></svg>