<svg width="96" height="33" fill="none" xmlns="http://www.w3.org/2000/svg"><path d="M12.275.962h.847c2.938.064 5.83 1.26 7.905 3.376-.766.791-1.549 1.55-2.3 2.342-1.165-1.066-2.57-1.89-4.104-2.18-2.268-.485-4.712-.05-6.612 1.26-2.077 1.372-3.482 3.699-3.785 6.186-.336 2.456.351 5.04 1.932 6.946 1.517 1.858 3.833 3.02 6.229 3.102 2.236.129 4.568-.566 6.197-2.149 1.277-1.114 1.868-2.81 2.06-4.458-2.651 0-5.302.016-7.954 0v-3.328h11.164c.575 3.57-.255 7.592-2.938 10.145-1.79 1.809-4.265 2.875-6.788 3.085-2.444.242-4.967-.226-7.14-1.422-2.603-1.405-4.679-3.78-5.701-6.574-.958-2.568-.974-5.476-.08-8.06a12.285 12.285 0 014.392-5.897C7.532 1.9 9.88 1.107 12.275.962zm64.045.84h3.418v23.067c-1.134 0-2.284.016-3.418-.016.016-7.673 0-15.362 0-23.051zM31.457 9.798c2.108-.404 4.392.048 6.133 1.325 1.58 1.13 2.683 2.907 3.018 4.846.431 2.245-.111 4.7-1.549 6.477-1.55 1.987-4.088 3.053-6.564 2.892-2.268-.13-4.472-1.277-5.814-3.15-1.517-2.068-1.884-4.911-1.054-7.334.83-2.6 3.178-4.588 5.83-5.056zm.479 3.069a4.289 4.289 0 00-2.236 1.438c-1.55 1.873-1.453 4.927.256 6.671.974 1.002 2.443 1.47 3.8 1.196 1.262-.227 2.364-1.083 2.971-2.214 1.054-1.922.751-4.571-.862-6.073-1.038-.97-2.556-1.373-3.93-1.018zm16.45-3.069c2.412-.469 5.047.21 6.852 1.922 2.939 2.665 3.258 7.657.75 10.726-1.516 1.938-3.976 3.005-6.404 2.891-2.316-.064-4.6-1.227-5.973-3.15-1.55-2.116-1.885-5.023-1.006-7.495.878-2.52 3.178-4.442 5.781-4.894zm.48 3.069a4.361 4.361 0 00-2.236 1.421c-1.534 1.842-1.47 4.846.175 6.607.974 1.05 2.492 1.567 3.897 1.276 1.246-.242 2.364-1.082 2.971-2.213 1.038-1.938.734-4.587-.895-6.09-1.038-.969-2.555-1.357-3.913-1.001zm13.878-2.132c1.838-1.164 4.28-1.487 6.261-.485.623.274 1.134.743 1.63 1.211.015-.436 0-.888.015-1.34 1.07.016 2.14 0 3.226.016v14.247c-.016 2.149-.559 4.426-2.092 5.993-1.677 1.729-4.248 2.262-6.564 1.906-2.476-.371-4.632-2.197-5.59-4.507.958-.468 1.965-.84 2.954-1.276.56 1.325 1.694 2.456 3.115 2.714 1.422.259 3.066-.097 3.993-1.292.99-1.228.99-2.908.942-4.41-.735.727-1.58 1.373-2.603 1.615-2.22.63-4.664-.145-6.373-1.663-1.725-1.519-2.747-3.861-2.65-6.187.047-2.633 1.516-5.17 3.736-6.543zm3.306 2.067a4.19 4.19 0 00-2.507 1.47c-1.502 1.81-1.502 4.7.016 6.478.862 1.05 2.252 1.631 3.594 1.486 1.261-.13 2.427-.937 3.05-2.052 1.054-1.89.879-4.458-.543-6.106a3.905 3.905 0 00-3.61-1.276zm17.792-1.244c1.918-1.809 4.872-2.423 7.332-1.47 2.332.889 3.817 3.134 4.567 5.444-3.466 1.454-6.915 2.892-10.38 4.346.478.92 1.213 1.76 2.203 2.1 1.39.5 3.05.322 4.216-.614.463-.356.83-.824 1.182-1.277.878.598 1.757 1.18 2.635 1.777-1.245 1.89-3.337 3.215-5.59 3.425-2.491.307-5.142-.662-6.755-2.633-2.651-3.102-2.396-8.303.59-11.098zm1.71 2.989c-.544.791-.767 1.76-.751 2.714 2.316-.97 4.632-1.939 6.948-2.924-.384-.905-1.31-1.454-2.252-1.6-1.517-.274-3.099.55-3.946 1.81z" fill="#747873"/></svg>