<svg width="57" height="13" fill="none" xmlns="http://www.w3.org/2000/svg"><path d="M6.152 6.393c.61.108 1.127.43 1.552.963.424.534.637 1.138.637 1.813 0 .577-.153 1.1-.458 1.569-.294.457-.724.822-1.29 1.094-.566.261-1.225.392-1.976.392H.076V.872h4.328c.773 0 1.438.13 1.993.392.555.26.975.615 1.258 1.061.283.436.424.926.424 1.47 0 .654-.174 1.198-.522 1.634-.349.435-.817.757-1.405.964zM1.938 5.64H4.24c.61 0 1.083-.136 1.421-.408.348-.283.523-.686.523-1.209 0-.512-.175-.91-.523-1.192-.338-.294-.811-.441-1.421-.441H1.938v3.25zm2.515 5.064c.632 0 1.127-.153 1.487-.458.359-.304.539-.73.539-1.274 0-.555-.19-.996-.572-1.323-.381-.326-.887-.49-1.52-.49h-2.45v3.545h2.516zm7.773-6.175a2.88 2.88 0 011.079-1.061c.457-.262.996-.392 1.617-.392v1.927h-.474c-.73 0-1.285.185-1.666.555-.37.37-.556 1.013-.556 1.928v4.737h-1.862v-9h1.862V4.53zm3.787 3.153c0-.904.185-1.704.555-2.401a4.148 4.148 0 013.691-2.205c.708 0 1.324.141 1.846.424.534.273.959.616 1.274 1.03V3.223h1.879v9h-1.879v-1.34c-.315.425-.745.78-1.29 1.062-.544.283-1.165.425-1.862.425a3.999 3.999 0 01-2.124-.588 4.364 4.364 0 01-1.535-1.666c-.37-.719-.555-1.53-.555-2.434zm7.366.033c0-.621-.13-1.16-.392-1.618a2.639 2.639 0 00-.996-1.045c-.414-.24-.86-.36-1.34-.36-.479 0-.925.12-1.339.36-.414.229-.751.572-1.013 1.03-.25.446-.375.98-.375 1.6 0 .62.125 1.165.375 1.633.262.469.6.828 1.013 1.078.425.24.871.36 1.34.36.479 0 .925-.12 1.339-.36.414-.24.746-.588.996-1.045.262-.468.392-1.013.392-1.633z" fill="#fff"/><path d="M31.183 10.558l2.548-7.334h1.977l-3.43 9h-2.222l-3.414-9h1.993l2.548 7.334zm5.311-2.875c0-.904.185-1.704.556-2.401a4.148 4.148 0 013.691-2.205c.708 0 1.323.141 1.846.424.534.273.958.616 1.274 1.03V3.223h1.879v9h-1.88v-1.34c-.316.425-.746.78-1.29 1.062-.545.283-1.165.425-1.862.425a3.999 3.999 0 01-2.124-.588 4.364 4.364 0 01-1.535-1.666c-.37-.719-.556-1.53-.556-2.434zm7.367.033c0-.621-.13-1.16-.392-1.618a2.639 2.639 0 00-.996-1.045c-.414-.24-.86-.36-1.34-.36-.479 0-.925.12-1.34.36-.413.229-.75.572-1.012 1.03-.25.446-.376.98-.376 1.6 0 .62.126 1.165.376 1.633a2.85 2.85 0 001.013 1.078c.425.24.871.36 1.34.36.478 0 .925-.12 1.339-.36.413-.24.746-.588.996-1.045.261-.468.392-1.013.392-1.633zm3.704-.033c0-.904.185-1.704.555-2.401a4.149 4.149 0 013.692-2.205c.707 0 1.323.141 1.845.424.534.273.959.616 1.274 1.03V3.223h1.879v9h-1.88v-1.34c-.315.425-.745.78-1.29 1.062-.544.283-1.165.425-1.862.425a4 4 0 01-2.124-.588 4.366 4.366 0 01-1.535-1.666c-.37-.719-.555-1.53-.555-2.434zm7.366.033c0-.621-.13-1.16-.392-1.618a2.638 2.638 0 00-.996-1.045c-.414-.24-.86-.36-1.34-.36-.479 0-.925.12-1.339.36-.414.229-.751.572-1.012 1.03-.251.446-.376.98-.376 1.6 0 .62.125 1.165.376 1.633.26.469.598.828 1.012 1.078.425.24.871.36 1.34.36.479 0 .925-.12 1.339-.36.414-.24.746-.588.996-1.045.262-.468.392-1.013.392-1.633z" fill="#F97239"/></svg>