<svg width="145" height="33" fill="none" xmlns="http://www.w3.org/2000/svg"><path d="M15.084 17.325V32.14H.48V17.325h14.603zm16.127 0V32.14H16.608V17.325h14.603zm44.452-5.173a8.51 8.51 0 011.739.194c.62.12 1.072.314 1.477.483l.024.024v3.07l-.12-.097c-.928-.677-1.953-1.015-2.953-1.015-1.191 0-2.168.41-2.907 1.209-.738.797-1.095 1.885-1.095 3.262 0 1.33.357 2.393 1.072 3.167.69.797 1.667 1.16 2.906 1.16.429 0 .929-.097 1.477-.29a5.296 5.296 0 001.5-.798l.12-.097v2.9l-.024.025c-1 .58-2.263.894-3.74.894-1.286 0-2.43-.29-3.407-.846-1.024-.555-1.786-1.377-2.334-2.392-.548-1.04-.834-2.176-.834-3.457 0-1.474.286-2.755.858-3.867.547-1.087 1.405-1.958 2.477-2.586 1.072-.629 2.358-.943 3.764-.943zm20.392.025c2.048 0 3.692.604 4.812 1.836 1.167 1.233 1.739 2.925 1.739 5.052 0 2.151-.596 3.891-1.835 5.196-1.215 1.306-2.906 1.958-5.026 1.958-2.025 0-3.645-.628-4.836-1.837-1.191-1.232-1.81-2.924-1.81-5.003 0-2.224.595-3.988 1.834-5.269 1.215-1.28 2.954-1.933 5.122-1.933zm25.179 0c2.049 0 3.693.604 4.812 1.836 1.168 1.233 1.739 2.925 1.739 5.052 0 2.151-.595 3.891-1.834 5.196-1.215 1.306-2.906 1.958-5.026 1.958-2.025 0-3.645-.628-4.836-1.837-1.191-1.232-1.811-2.924-1.811-5.003 0-2.224.62-3.988 1.835-5.269 1.215-1.28 2.954-1.933 5.121-1.933zm-12.006-.025c.429 0 .953.049 1.525.145a8.52 8.52 0 011.405.411l.072.024v2.95l-.119-.098c-.382-.29-.858-.507-1.382-.652a6.08 6.08 0 00-1.596-.242c-.596 0-1.001.121-1.358.363-.357.241-.5.604-.5.966 0 .436.119.774.357 1.016.286.265.905.58 1.882.99a9.629 9.629 0 012.787 1.668c.524.605.762 1.402.762 2.296 0 1.281-.5 2.272-1.453 3.046-.929.797-2.239 1.16-3.835 1.16-.524 0-1.12-.097-1.787-.218-.667-.169-1.215-.314-1.667-.531l-.072-.024v-3.07l.119.097a6.61 6.61 0 001.739.894c.644.218 1.191.314 1.716.314 1.357 0 2.024-.435 2.024-1.33 0-.313-.071-.555-.19-.748a3.207 3.207 0 00-.715-.58c-.333-.194-.881-.436-1.596-.75-.857-.362-1.477-.749-1.906-1.087a3.676 3.676 0 01-.953-1.257c-.214-.46-.309-1.015-.309-1.644 0-1.184.452-2.2 1.405-2.948.953-.798 2.168-1.16 3.645-1.16zm25.871-6.332c.738 0 1.31.096 1.739.242l.071.024v2.73l-.119-.072c-.5-.217-.953-.314-1.382-.314-.619 0-1.119.194-1.453.58-.333.387-.524.991-.524 1.765v1.691h4.669v-3.02l.072-.025 2.954-.894.095-.024v3.963h3.121v2.587h-3.169v6.332c0 .822.143 1.378.429 1.716.31.363.739.508 1.358.508.167 0 .381-.024.619-.097.286-.072.453-.169.643-.29l.12-.097v2.587l-.024.024a4.3 4.3 0 01-.977.314c-.429.072-.881.145-1.31.145-2.621 0-3.931-1.426-3.931-4.254v-6.888h-4.669v10.804h-3.121V15.028h-2.167v-2.562h2.167v-1.86c0-.943.215-1.765.62-2.49a4.165 4.165 0 011.691-1.716 5.517 5.517 0 012.478-.58zM60.322 7.197v18.66h-3.169V14.013c.024-.749.072-1.982.143-3.36h-.071c-.12.532-.238 1.16-.358 1.475l-5.479 13.753h-2.096l-5.527-13.632c-.119-.338-.285-.87-.428-1.595h-.072c.024.29.072.677.095 1.184.017.725.022 1.352.024 1.915v12.176h-2.977V7.246h4.502l4.598 11.722a17.69 17.69 0 01.833 2.417h.072l.857-2.465 4.717-11.723h4.336zm6.098 5.27v13.39h-3.097v-13.39h3.097zm21.202-.218c.524 0 .953.072 1.167.217l.071.025v3.142l-.119-.097c-.166-.12-.405-.217-.738-.314-.358-.048-.643-.121-.93-.121-.81 0-1.476.363-2 1.088-.524.7-.763 1.667-.763 2.828v6.84h-3.097v-13.39h3.097v2.344h.024c.31-.75.667-1.378 1.191-1.813a3.238 3.238 0 012.097-.749zm8.29 2.514c-1.12 0-2.002.386-2.645 1.16-.619.773-.953 1.86-.953 3.287 0 1.378.31 2.465.953 3.214.644.798 1.549 1.16 2.668 1.16 1.12 0 2.025-.362 2.597-1.111.596-.75.858-1.885.905-3.336 0-1.426-.333-2.513-.953-3.263-.619-.749-1.477-1.111-2.572-1.111zm25.156 0c-1.12 0-2.001.386-2.645 1.16-.619.773-.953 1.86-.953 3.287 0 1.378.31 2.465.953 3.214.644.798 1.525 1.16 2.668 1.16 1.12 0 2.025-.362 2.597-1.111.596-.75.905-1.885.905-3.336 0-1.426-.333-2.513-.953-3.263-.619-.749-1.5-1.111-2.572-1.111zM15.084.962v14.816H.48V.962h14.603zm16.127 0v14.816H16.608V.962h14.603zM64.895 6.81c.548 0 1.001.193 1.31.532a1.8 1.8 0 01.549 1.305c0 .507-.191.942-.548 1.28a1.885 1.885 0 01-1.31.508c-.525 0-.953-.169-1.31-.507a1.712 1.712 0 01-.549-1.281c0-.532.19-.967.548-1.305a1.841 1.841 0 011.31-.532z" fill="#747873"/></svg>