<svg width="46" height="45" fill="none" xmlns="http://www.w3.org/2000/svg"><path d="M3.857 14.996l1.221.124c3.483-.456 5.905-.106 7.986.995 1.999 1.056 3.636 2.78 5.581 5.134 1.078-.417 4.275-1.58 7.355-.246 1.894.82 3.118 2.447 4.14 3.804.828 1.1 1.502 1.995 2.118 1.918l1.03-.13c-1.355-4.029-1.46-8.591-1.556-12.84-.011-.487-.023-.97-.036-1.456-1.154.047-1.799-.302-2.393-.623-.419-.227-.806-.437-1.387-.38-1.76.174-3.687-1.404-3.693-1.409a.522.522 0 01-.109-.12c-.22-.298-2.824-3.864-2.648-5.063.161-1.101 1.36-1.427 1.944-1.52.274-.556.932-1.814 1.479-2.229.397-.3 1.014-.18 1.787-.027l.018.004c.518.102 1.12.22 1.677.224.82.006 3.232 1.237 4.638 1.954.328.168.6.306.778.392h.002c1.715.825 3.497 6.75 3.659 7.297.772 1.555 1.62 2.921 2.474 4.298 1.597 2.573 3.216 5.18 4.479 9.208.924 2.95 1.57 5.833 1.541 8.028-.026 1.991-.605 3.454-2.005 3.995-1.443.559-3.807 1.355-6.364 2.097-2.024.586-4.175 1.14-6.097 1.515-2.318.452-6.257.43-9.841.011-2.947-.344-5.681-.965-7.14-1.822-.839 1.143-1.536 3.715-2.194 6.144l-.034.127a.518.518 0 01-.805.317 26.256 26.256 0 01-8.26-9.418A26.345 26.345 0 01.24 23.12a26.748 26.748 0 01.684-6.004 2.76 2.76 0 011.072-1.622 2.7 2.7 0 011.86-.498zm11.492 19.126a.266.266 0 01-.007-.373.26.26 0 01.369-.007c.847.825 2.726 1.685 5.138 2.258a24.86 24.86 0 007.093.62.262.262 0 01.275.25.263.263 0 01-.246.277 25.355 25.355 0 01-7.24-.632c-2.503-.594-4.472-1.506-5.382-2.393zm15.156 2.732a.262.262 0 01-.302-.217.264.264 0 01.214-.304 21.101 21.101 0 001.297-.273.264.264 0 01.123.513 19.552 19.552 0 01-1.332.28zm8.631-17.27a.265.265 0 01.107-.358.26.26 0 01.353.109 43.332 43.332 0 012.498 5.8c.57 1.656 1.037 3.404 1.207 4.985a.264.264 0 01-.232.29.262.262 0 01-.287-.234c-.165-1.538-.623-3.246-1.181-4.868a42.819 42.819 0 00-2.465-5.725zm3.716 12.065a.261.261 0 01.298-.22c.142.022.24.157.218.3-.049.311-.11.604-.188.876a5.437 5.437 0 01-.276.764.26.26 0 01-.346.13.265.265 0 01-.129-.349c.096-.21.178-.442.248-.69.074-.26.132-.531.175-.811zM5.034 16.176l-1.28-.13a1.673 1.673 0 00-1.153.308c-.32.232-.561.58-.659 1.002a25.372 25.372 0 00-.656 5.764 25.28 25.28 0 002.84 11.687 25.22 25.22 0 007.327 8.609c.714-2.624 1.49-5.284 2.568-6.34a.518.518 0 01.696-.06c1.15.876 3.95 1.524 7.036 1.885 3.492.408 7.307.434 9.527.001 1.88-.367 4.002-.913 6.007-1.495 2.528-.732 4.859-1.518 6.278-2.067.928-.359 1.314-1.471 1.334-3.02.028-2.063-.599-4.835-1.496-7.696-1.225-3.908-2.805-6.453-4.364-8.965-.867-1.398-1.729-2.785-2.531-4.404a.536.536 0 01-.05-.117c-.005-.017-1.746-6.02-3.119-6.681a48.98 48.98 0 01-.8-.405c-1.327-.676-3.602-1.837-4.172-1.842-.67-.005-1.317-.131-1.873-.24l-.019-.004c-.521-.103-.937-.185-.96-.167-.497.376-1.282 2.092-1.285 2.097a.522.522 0 01-.448.306c-.003 0-1.194.057-1.282.655-.11.75 2.085 3.78 2.424 4.243.281.219 1.698 1.264 2.894 1.146.891-.088 1.412.194 1.976.5.545.294 1.142.617 2.34.456a.524.524 0 01.589.509c.02.65.035 1.333.051 2.024.1 4.369.208 9.077 1.703 13.087a.528.528 0 01-.414.742l-1.678.21c-1.209.152-2.046-.96-3.075-2.326-.947-1.257-2.08-2.763-3.719-3.474-2.794-1.21-5.792-.045-6.671.296-.122.047-.213.083-.287.105a.523.523 0 01-.08.018l-.015.002a.52.52 0 01-.464-.188c-1.97-2.404-3.58-4.147-5.492-5.158-1.894-1-4.138-1.31-7.415-.877a.522.522 0 01-.133.004z" fill="#fff"/></svg>