<svg width="105" height="67" fill="none" xmlns="http://www.w3.org/2000/svg"><rect x=".85" y="65.632" width="47.249" height="7.46" rx="3.73" transform="rotate(-90 .85 65.632)" fill="#D3D3D3"/><rect x=".85" y="66.876" width="27.355" height="7.46" rx="3.73" transform="rotate(-90 .85 66.876)" fill="#DA890F"/><rect x="16.845" y="66.967" width="63.976" height="7.487" rx="3.743" transform="rotate(-90 16.845 66.967)" fill="#D3D3D3"/><rect x="17.014" y="66.876" width="34.815" height="7.46" rx="3.73" transform="rotate(-90 17.014 66.876)" fill="#DA890F"/><rect x="33.179" y="66.967" width="52.406" height="7.487" rx="3.743" transform="rotate(-90 33.18 66.967)" fill="#D3D3D3"/><rect x="33.179" y="66.876" width="29.842" height="7.46" rx="3.73" transform="rotate(-90 33.179 66.876)" fill="#DA890F"/><rect x="49.514" y="66.967" width="55.809" height="7.487" rx="3.743" transform="rotate(-90 49.514 66.967)" fill="#D3D3D3"/><rect x="49.343" y="66.876" width="34.815" height="7.46" rx="3.73" transform="rotate(-90 49.343 66.876)" fill="#DA890F"/><rect x="65.168" y="66.967" width="66.018" height="7.487" rx="3.743" transform="rotate(-90 65.168 66.967)" fill="#D3D3D3"/><rect x="65.507" y="66.876" width="27.355" height="7.46" rx="3.73" transform="rotate(-90 65.507 66.876)" fill="#DA890F"/><rect x="80.501" y="66.967" width="52.406" height="7.487" rx="3.743" transform="rotate(-90 80.501 66.967)" fill="#D3D3D3"/><rect x="80.671" y="66.876" width="33.572" height="7.46" rx="3.73" transform="rotate(-90 80.67 66.876)" fill="#DA890F"/><rect x="96.836" y="66.967" width="61.254" height="7.487" rx="3.743" transform="rotate(-90 96.836 66.967)" fill="#D3D3D3"/><rect x="96.835" y="66.876" width="28.598" height="7.46" rx="3.73" transform="rotate(-90 96.835 66.876)" fill="#DA890F"/></svg>