<svg width="74" height="74" fill="none" xmlns="http://www.w3.org/2000/svg"><g fill="#747873"><path d="M73.25 13.877C73.25 6.274 67.135.09 59.618.09c-7.517 0-13.633 6.184-13.633 13.787 0 5.095 2.841 9.815 7.286 12.189v21.552c-4.445 2.373-7.286 7.094-7.286 12.188 0 7.602 6.116 13.788 13.633 13.788 7.517 0 13.632-6.186 13.632-13.788 0-5.094-2.84-9.815-7.285-12.188V26.066c4.444-2.374 7.285-7.094 7.285-12.189zm-8.583 35.138c4.11 1.971 6.766 6.207 6.766 10.79 0 6.59-5.3 11.952-11.815 11.952s-11.816-5.362-11.816-11.951c0-4.584 2.656-8.82 6.767-10.79a.919.919 0 00.518-.83V25.497a.919.919 0 00-.519-.83c-4.11-1.97-6.766-6.207-6.766-10.79 0-6.59 5.3-11.95 11.816-11.95 6.515 0 11.815 5.36 11.815 11.95 0 4.583-2.656 8.82-6.766 10.79a.919.919 0 00-.52.83v22.687a.92.92 0 00.52.83z"/><path d="M62.452 54.754a.926.926 0 00.209 1.282 5.322 5.322 0 012.186 4.301c0 .508.407.92.909.92a.913.913 0 00.908-.92 7.17 7.17 0 00-2.944-5.794.9.9 0 00-1.268.21zm3.304-40.086a.913.913 0 00.908-.92 7.17 7.17 0 00-2.944-5.795.9.9 0 00-1.268.211.926.926 0 00.209 1.282 5.323 5.323 0 012.186 4.303c0 .508.407.919.909.919zM36.525 68.023V40.125c0-3.335-1.417-6.483-3.812-8.681 2.575-.693 4.478-3.072 4.478-5.892V15.016c0-3.361-2.703-6.096-6.026-6.096h-6.79V1.927h.861a.913.913 0 00.909-.919.913.913 0 00-.909-.918H12.53a.913.913 0 00-.908.918c0 .508.406.92.908.92h.862V8.92h-6.79C3.28 8.92.575 11.655.575 15.016v10.536c0 2.82 1.903 5.198 4.479 5.892a11.803 11.803 0 00-3.813 8.681v27.898c0 3.072 2.471 5.571 5.509 5.571h24.267c3.037 0 5.508-2.499 5.508-5.571zM15.209 1.927h7.349V8.92h-7.35V1.927zM3.059 68.023v-6.348h7.014a.913.913 0 00.908-.92.913.913 0 00-.908-.918H3.058v-7.475h7.015a.913.913 0 00.908-.919.913.913 0 00-.908-.919H3.058V43.05h7.015a.913.913 0 00.908-.919.913.913 0 00-.908-.919H3.058v-1.087c0-3.546 1.9-6.84 4.96-8.598a.922.922 0 00.43-1.033.91.91 0 00-.879-.684h-.967c-2.321 0-4.21-1.91-4.21-4.258V15.016c0-2.348 1.889-4.259 4.21-4.259h24.563c2.32 0 4.21 1.91 4.21 4.259v10.536c0 2.348-1.89 4.258-4.21 4.258h-.968a.91.91 0 00-.878.684.922.922 0 00.43 1.033 9.931 9.931 0 014.96 8.598v1.087h-7.015a.913.913 0 00-.908.92c0 .507.406.918.908.918h7.014v7.474h-7.014a.913.913 0 00-.908.92c0 .507.406.918.908.918h7.014v7.475h-7.014a.913.913 0 00-.908.919c0 .508.406.919.908.919h7.014v6.348c0 2.058-1.656 3.734-3.691 3.734H6.75c-2.035 0-3.692-1.676-3.692-3.734z"/></g></svg>