<svg width="88" height="90" fill="none" xmlns="http://www.w3.org/2000/svg"><path d="M86.507 24.677L64.308 2.21c-1.707-1.73-4.364-1.73-6.071 0l-5.218 5.28c-.854.769-1.233 1.92-1.233 3.073v.48c-1.233-.096-2.561.288-3.51 1.248l-5.123 5.281c-1.707 1.728-1.707 4.417 0 6.145l7.21 7.297-20.302 20.451-7.21-7.297c-1.707-1.728-4.363-1.728-6.07 0l-5.218 5.28c-.95.961-1.329 2.305-1.234 3.553h-.474c-1.139 0-2.182.48-3.036 1.249l-5.218 5.28c-1.707 1.729-1.707 4.417 0 6.145l22.2 22.468c.853.864 1.897 1.248 3.035 1.248 1.138 0 2.182-.384 3.036-1.248l5.217-5.28c.854-.77 1.234-1.921 1.234-3.073v-.48h.474c1.138 0 2.182-.385 3.036-1.249l5.217-5.28c1.708-1.729 1.708-4.417 0-6.145l-7.21-7.298 20.302-20.547 7.21 7.297c.854.864 1.897 1.249 3.036 1.249 1.138 0 2.182-.385 3.035-1.249l5.218-5.28c.949-.96 1.328-2.305 1.233-3.553h.475c1.138 0 2.182-.48 3.035-1.248l5.218-5.281c1.613-1.632 1.613-4.32-.095-6.049zM34.52 79.694c0 .672-.284 1.248-.664 1.728l-5.218 5.28c-.948.96-2.466.96-3.32 0L3.024 64.236c-.948-.96-.948-2.496 0-3.36l5.218-5.281c.474-.48 1.044-.672 1.708-.672.664 0 1.233.288 1.707.672l22.2 22.467c.379.384.663 1.056.663 1.633zm9.202-8.354l-5.217 5.281c-.949.96-2.467.96-3.32 0l-22.2-22.467c-.948-.96-.948-2.497 0-3.36l5.218-5.282c.474-.48 1.044-.672 1.708-.672.664 0 1.233.192 1.707.672l7.874 7.97 6.451 6.529 7.874 7.969c.854.96.854 2.496-.095 3.36zm10.72-31.493L53.4 38.791a.91.91 0 00-1.328 0 .936.936 0 000 1.345l1.043 1.056-16.602 16.802-5.122-5.185 2.276-2.304 1.044 1.056c.19.192.474.288.664.288.19 0 .474-.096.664-.288a.936.936 0 000-1.344l-1.043-1.056L51.69 32.262l5.123 5.185-2.372 2.4zm20.776-.384L70 44.744c-.948.96-2.466.96-3.32 0l-7.874-7.969-6.45-6.529-7.875-7.97c-.948-.96-.948-2.496 0-3.36l5.218-5.28c.474-.48 1.043-.673 1.708-.673.664 0 1.233.192 1.707.672l22.199 22.468c.854.864.854 2.4-.095 3.36zm9.961-10.081l-5.218 5.28c-.853.865-2.466.865-3.32 0L54.442 12.196c-.474-.48-.664-1.056-.664-1.728 0-.672.285-1.248.664-1.728l5.218-5.281c.38-.384 1.043-.576 1.613-.576.569 0 1.233.192 1.707.672l22.2 22.465c.949.96.949 2.497 0 3.36z" fill="#747873"/></svg>