<svg width="34" height="33" fill="none" xmlns="http://www.w3.org/2000/svg"><rect x=".964" y=".146" width="32.669" height="32.669" rx="16.334" fill="#FFF1EB"/><path d="M24.003 11.42a4.38 4.38 0 00-3.26-1.42c-.94 0-1.802.298-2.56.884-.383.297-.73.659-1.035 1.082a5.234 5.234 0 00-1.035-1.082 4.097 4.097 0 00-2.56-.884 4.38 4.38 0 00-3.26 1.42C9.459 12.325 9 13.56 9 14.9c0 1.38.514 2.642 1.616 3.973.987 1.191 2.404 2.4 4.046 3.8.56.478 1.196 1.02 1.856 1.597a.956.956 0 001.26 0c.66-.577 1.295-1.119 1.856-1.597 1.641-1.4 3.059-2.609 4.045-3.8 1.103-1.331 1.617-2.594 1.617-3.973 0-1.34-.46-2.575-1.293-3.48z" fill="#FF6726"/></svg>