<svg width="95" height="27" fill="none" xmlns="http://www.w3.org/2000/svg"><path d="M3.888.684l5.208 14.674V.684h4.032v24.195c-1.427.253-2.88.329-4.382.53L4.163 11.874V25.99c-1.427.151-2.73.353-4.081.556V.684h3.806zm81.259 0l2.629 6.794L90.58.684h4.382l-5.084 12.3 5.084 13.563c-1.503-.203-3.005-.48-4.508-.733l-2.88-7.476-2.929 6.87c-1.453-.253-2.855-.328-4.307-.53l5.158-11.846L80.84.684h4.306zm-57.044 0v4.04h-7.087v5.431c1.553 0 3.932-.076 5.359-.076v4.041c-1.778 0-3.857 0-5.359.076v6.011c2.354-.151 4.708-.354 7.087-.43v3.89l-11.094.884V.684h11.094zm49.306 0v23.791c-1.302-.15-2.655-.227-3.932-.303V.684h3.932zm-14.124 0V19.55c2.28.05 4.583.228 6.812.354v3.99c-3.581-.227-7.162-.454-10.818-.53V.684h4.006zm-20.283 0v4.04h-4.157v18.59c-1.352 0-2.704 0-4.006.05V4.724h-4.157V.685h12.32zm13.773 0v4.04h-7.262v5.153h5.484v4.041h-5.484v9.168H45.58V.684h11.194z" fill="#747873"/></svg>