<svg width="93" height="92" fill="none" xmlns="http://www.w3.org/2000/svg"><path d="M78.127 67.765c-5.331 5.78-13.399 8.71-23.974 8.71h-3.8V65.761l3.055-.612c5.206-1.041 8.827-3.09 10.765-6.095a11.027 11.027 0 001.665-5.38H54.153a3.8 3.8 0 01-3.8-3.8v-26.6c0-4.192 3.408-7.6 7.6-7.6h22.8a3.8 3.8 0 013.8 3.8v19l-.012 11.091c.035.422.757 10.416-6.414 18.199zm-61.974-52.09h22.8a3.8 3.8 0 013.8 3.8v19l-.012 11.091c.035.422.757 10.416-6.414 18.199-5.331 5.78-13.399 8.71-23.974 8.71h-3.8V65.761l3.055-.612c5.206-1.041 8.827-3.09 10.765-6.095a11.027 11.027 0 001.665-5.38H12.353a3.8 3.8 0 01-3.8-3.8v-26.6c0-4.192 3.408-7.6 7.6-7.6z" fill="#fff"/></svg>