<svg width="46" height="54" fill="none" xmlns="http://www.w3.org/2000/svg"><path d="M13.763 53.271c-1.726 0-3.124-1.293-3.124-2.887v-6.66c0-.786.34-1.52.932-2.058a123.56 123.56 0 013.251-2.855c1.631-1.39 2.447-2.09 2.796-2.9.35-.807.297-1.852.18-3.943-.085-1.498-.19-3.534-.201-6.38a1.352 1.352 0 01-.212-.118L6.838 19.318c-.731-.42-1.229-1.089-1.398-1.876a2.73 2.73 0 01.434-2.133c.921-1.315 2.838-1.703 4.268-.873l9.266 5.399c2.16-1.218 5.962-1.283 8.08.41L36.14 15.2c1.44-.83 3.346-.442 4.268.873.444.636.603 1.39.434 2.134-.17.786-.667 1.454-1.398 1.875l-10.548 6.142a1.947 1.947 0 01-.211.107 128.243 128.243 0 01-.16 5.787c-.095 2.069-.147 3.103.18 3.868.33.765 1.081 1.412 2.595 2.683.89.744 1.98 1.67 3.41 2.975.604.55.932 1.282.932 2.058v6.659c0 1.595-1.398 2.888-3.124 2.888-1.726 0-3.124-1.293-3.124-2.888V44.91l-2.89-2.64c-.965.452-2.14.71-3.369.71-1.228 0-2.403-.247-3.367-.71l-2.891 2.64v5.452c.01 1.616-1.398 2.91-3.114 2.91zM8.49 14.867c-.752 0-1.494.334-1.917.96a1.772 1.772 0 00-.297 1.443c.117.539.466 1.013.985 1.315l10.548 6.153c.116.064.243.129.36.172a.43.43 0 01.275.41c0 2.974.117 5.086.201 6.616.244 4.45.18 4.59-3.272 7.543-.847.722-1.906 1.627-3.23 2.834a1.92 1.92 0 00-.646 1.422v6.66c0 1.12 1.017 2.025 2.277 2.025 1.25 0 2.277-.905 2.277-2.026V44.76c0-.119.053-.237.138-.324l3.25-2.963a.434.434 0 01.477-.065c.88.475 2.033.744 3.24.744 1.208 0 2.352-.259 3.241-.744a.395.395 0 01.477.065l3.25 2.963a.452.452 0 01.139.324v5.635c0 1.121 1.016 2.026 2.276 2.026 1.26 0 2.277-.905 2.277-2.026v-6.659c0-.539-.233-1.034-.646-1.422a115.237 115.237 0 00-3.378-2.953c-3.23-2.726-3.283-2.855-3.082-7.263.064-1.422.16-3.362.16-6.034 0-.183.105-.345.274-.41.128-.043.244-.107.36-.172l10.548-6.142c.52-.302.869-.765.985-1.315a1.82 1.82 0 00-.307-1.444c-.678-.958-2.086-1.239-3.156-.624l-8.917 5.204a.41.41 0 01-.497-.054c-1.674-1.54-5.401-1.735-7.53-.388a.42.42 0 01-.434.011l-9.478-5.528a2.397 2.397 0 00-1.228-.334z" fill="#fff"/><path d="M23.146 17.399c-2.828 0-5.136-2.35-5.136-5.226 0-2.888 2.308-5.227 5.136-5.227 2.827 0 5.136 2.35 5.136 5.227 0 2.887-2.309 5.226-5.136 5.226zm0-9.59c-2.362 0-4.289 1.96-4.289 4.364 0 2.403 1.927 4.364 4.289 4.364 2.361 0 4.289-1.961 4.289-4.364 0-2.403-1.927-4.364-4.29-4.364zm22.428-2.822H42.27a.429.429 0 01-.423-.431c0-.237.19-.431.423-.431h3.304c.233 0 .424.194.424.43 0 .238-.19.432-.424.432zm-8.227 0H8.945a.429.429 0 01-.424-.431c0-.237.191-.431.424-.431h28.402c.233 0 .424.194.424.43 0 .238-.19.432-.424.432zm-33.327 0H.725a.429.429 0 01-.424-.431c0-.237.19-.431.424-.431H4.03c.233 0 .424.194.424.43a.438.438 0 01-.435.432z" fill="#fff"/><path d="M8.943 9.07H6.487a.429.429 0 01-.424-.431V1.118c0-.237.19-.431.424-.431h2.456c.233 0 .424.194.424.43V8.64c0 .237-.19.431-.424.431zM6.91 8.208h1.61v-6.66H6.91v6.66z" fill="#fff"/><path d="M6.488 7.13H4.021a.429.429 0 01-.424-.43V3.045c0-.237.19-.43.424-.43h2.457c.233 0 .423.193.423.43V6.7a.413.413 0 01-.413.431zm-2.044-.862h1.61v-2.79h-1.61v2.79zM39.803 9.07h-2.457a.429.429 0 01-.424-.431V1.118c0-.237.191-.431.424-.431h2.457c.233 0 .423.194.423.43V8.64c0 .237-.19.431-.423.431zm-2.033-.862h1.61v-6.66h-1.61v6.66z" fill="#fff"/><path d="M42.271 7.13h-2.457a.429.429 0 01-.423-.43V3.045c0-.237.19-.43.423-.43h2.457c.233 0 .424.193.424.43V6.7c0 .237-.19.431-.424.431zm-2.044-.862h1.61v-2.79h-1.61v2.79zm1.693 47.004H4.367a.429.429 0 01-.423-.431c0-.237.19-.431.423-.431H41.93a.43.43 0 01-.01.862z" fill="#fff"/></svg>