<svg width="46" height="60" fill="none" xmlns="http://www.w3.org/2000/svg"><path d="M45.847 12.105c-.273-.886-1.072-1.422-2.19-1.472a1.408 1.408 0 00-1.12.675c-.02.024-.038.049-.058.072-1.25.494-1.08 2.266-.971 3.051-.456.814-1.547 1.745-2.642 2.602-.974-2.23-1.894-4.25-2.598-5.222a.415.415 0 00-.036-.045 3.813 3.813 0 00-.13-.132l-.055-.055a.475.475 0 00-.612-.053c-2.357 1.684-6.454 1.493-7.97-.371a.476.476 0 00-.536-.145c-.307.116-7.561 2.869-10.034 4.169a3.52 3.52 0 00-1.344 1.251c-1.013 1.639-2.755 4.582-3.141 5.325a4.08 4.08 0 00-1.15 3.148.746.746 0 00.196.394 4.088 4.088 0 002.133 1.197 1.512 1.512 0 001.527-.565l.514-.665c.915-.7.533-2.112.285-2.848.452-.726 1.837-2.804 2.458-3.684a69.575 69.575 0 016.76-1.939 9.175 9.175 0 01-.098.905c-.02.136-.035.24-.039.3-.02.91.051 1.818.212 2.712.072.485.146.986.185 1.485a5.997 5.997 0 01-.515 3.225c-3.426 1.268-5.006 3.697-4.698 7.224-1.42 2.013-2.63 4.547-3.793 7.94a1.216 1.216 0 01-.99.696c-2.649.685-4.28 1.389-5.322 2.313a38.09 38.09 0 01-4.819 4.459 1.41 1.41 0 00-.231.001c-.072.01-.144.012-.216.007a5.185 5.185 0 00-2.441-.51 1.656 1.656 0 00-1.358 1.068 3.588 3.588 0 00-.202 2.562 11.775 11.775 0 00-.289 6.62c.035.152.087.299.155.438.186.381.5.683.886.85.196.088.407.134.62.135.309-.002.609-.101.859-.283a1.717 1.717 0 00.681-1.417l-.016-1.11a11.222 11.222 0 012.745-3.621.773.773 0 00.196-.308c3.8-2.323 7.742-4.398 11.803-6.211a.455.455 0 00.075-.041l.116-.078c.195-.13.383-.256.577-.389a.505.505 0 00.065-.053l.844-.821c2.804-2.715 5.46-5.285 6.885-7.932.424.102.847.212 1.27.322 1.35.396 2.733.662 4.132.794l.238.016c.793.053 1.542.103 2.301.222.075.012.413.099.71.175.513.131.908.231 1.217.302a12.392 12.392 0 00-2.096 5.44 13.782 13.782 0 01-1.95 4.758.692.692 0 00-.257.19c-.034.038-.07.074-.11.108a5.257 5.257 0 00-1.54 1.96 1.51 1.51 0 00.09 1.268 4.12 4.12 0 002.295 1.741c1.848 1.98 3.77 3.228 5.722 3.713a1.81 1.81 0 001.605-.362 1.484 1.484 0 00.528-1.396 1.703 1.703 0 00-.315-.747 1.678 1.678 0 00-.623-.513l-.988-.489a11.26 11.26 0 01-1.951-4.098.78.78 0 00-.22-.37c.049-.245.13-.483.24-.707 2.351-3.974 4.746-8.102 5.932-11.107a1.03 1.03 0 00.037-.163c.154-1.715-.25-2.936-1.236-3.733a.403.403 0 00-.046-.033l-.938-.589c-3.063-1.929-5.965-3.757-9.312-4.525a30.16 30.16 0 002.634-7.681 1.634 1.634 0 001.22-.442 1.74 1.74 0 00.41-.544c.403.41.85.773 1.332 1.081 1.256.766 2.042.292 2.873-.358.86-.7 1.623-1.51 2.273-2.412.4-.531.771-1.084 1.112-1.655.15-.246.292-.494.433-.742l.118-.206a3.96 3.96 0 00.145-.32c.058-.148.125-.292.202-.431 1.114-.816 1.682-2.21 1.35-3.32zM2.79 56.12a.489.489 0 00-.04.2l.018 1.214a.743.743 0 01-.277.616.519.519 0 01-.56.05.822.822 0 01-.405-.397 1.022 1.022 0 01-.078-.222 10.799 10.799 0 01.304-6.205.488.488 0 00.017-.275 2.738 2.738 0 01.14-2.156.68.68 0 01.555-.436 2.22 2.22 0 01.198-.009 4.805 4.805 0 011.787.453c.017.007.034.009.05.015a11.456 11.456 0 001.022 3.384 11.753 11.753 0 00-2.73 3.768zm35.78-.966a.477.477 0 00.158.126l1.08.534a.725.725 0 01.415.537.535.535 0 01-.202.518.898.898 0 01-.77.16c-1.792-.446-3.588-1.635-5.336-3.533a.472.472 0 00-.236-.14 3.276 3.276 0 01-1.816-1.286.535.535 0 01-.05-.472 4.375 4.375 0 011.277-1.583 2.28 2.28 0 00.09-.084c.01-.001.019-.008.029-.01a6.927 6.927 0 003.198.83 11.985 11.985 0 002.163 4.403zm5.367-40.51c-.241.228-.42.515-.517.834-.039.091-.073.175-.1.224l-.112.198c-.137.24-.274.48-.42.72-.325.545-.68 1.071-1.06 1.577a11.68 11.68 0 01-2.1 2.234c-.772.604-1.101.714-1.79.295a9.42 9.42 0 01-1.939-1.777.475.475 0 00-.817.217.487.487 0 00.046.339.638.638 0 01-.163.79.585.585 0 01-.685.136.474.474 0 00-.743.315 29.277 29.277 0 01-2.922 8.513.486.486 0 00.338.695c3.434.64 6.43 2.527 9.601 4.525l.914.574c.702.58.978 1.48.865 2.825-1.157 2.915-3.52 6.988-5.855 10.934a3.9 3.9 0 00-.337.964 5.972 5.972 0 01-2.297-.615 14.452 14.452 0 001.88-4.775 10.97 10.97 0 012.393-5.618l.021-.025a.485.485 0 00-.178-.757.471.471 0 00-.292-.025c-.283-.027-1.28-.282-1.77-.408a13.142 13.142 0 00-.799-.194c-.801-.125-1.606-.179-2.386-.231l-.238-.016a21.27 21.27 0 01-3.957-.766 51.91 51.91 0 00-1.655-.411.47.47 0 00-.53.254c-1.3 2.617-4.004 5.234-6.869 8.006l-.814.793c-.18.122-.355.24-.536.36l-.08.054A104.49 104.49 0 006.236 51.61c-.364-.817-.62-1.68-.763-2.563a.471.471 0 00.145-.068 37.492 37.492 0 005.117-4.691c.88-.778 2.437-1.437 4.883-2.07a2.103 2.103 0 001.004-.428c.292-.228.52-.53.661-.875 1.166-3.4 2.365-5.895 3.775-7.853a.487.487 0 00.088-.335c-.342-3.272.999-5.325 4.222-6.46a.477.477 0 00.258-.218 6.794 6.794 0 00.719-3.93 22.954 22.954 0 00-.193-1.55 12.75 12.75 0 01-.203-2.516c.003-.04.015-.115.03-.212A3.807 3.807 0 0025.972 16a.48.48 0 00-.544-.268 72.02 72.02 0 00-7.516 2.143.477.477 0 00-.226.171c-.602.841-2.406 3.541-2.71 4.074a.486.486 0 00-.036.403c.387 1.097.417 1.767.09 1.99a.487.487 0 00-.11.103l-.555.719a.566.566 0 01-.564.22 3.17 3.17 0 01-1.605-.87 3.164 3.164 0 01.96-2.327.484.484 0 00.074-.108c.297-.597 2.119-3.673 3.128-5.307.24-.385.578-.698.977-.909 2.14-1.125 8.2-3.46 9.625-4.005 1.876 1.91 5.986 2.159 8.659.527a44.933 44.933 0 012.617 5.427.481.481 0 00.317.273.472.472 0 00.408-.083c1.45-1.111 2.911-2.293 3.468-3.443a.49.49 0 00.043-.283c-.196-1.333-.06-2.05.414-2.19a.477.477 0 00.215-.133c.057-.061.113-.13.172-.202a1.41 1.41 0 01.34-.325c.274-.025.55.038.787.18.237.143.424.357.535.612.21.701-.229 1.692-1 2.257zm-6.52 23.468l.004-.003-.003.002v.001zM30.27 6.869a.474.474 0 00.295-.217.488.488 0 00-.158-.663.473.473 0 00-.36-.057c-1.246.304-2.403.04-2.636-.6a1.307 1.307 0 01.357-1.197 4.23 4.23 0 011.813-1.228 5 5 0 01.876-.239.475.475 0 00.395-.45l.008-.164c.404-.655 1.615-.871 2.67-.79a3.858 3.858 0 012.633 1.363c.529.912 1.048 2.075.464 3.068a.485.485 0 00-.03.433l.366.88-.094-.011a.49.49 0 00-.347.106.5.5 0 00-.181.317l-.007.043a.194.194 0 01-.035.068.485.485 0 00-.032.555.727.727 0 00-.17.726 1.12 1.12 0 01-.767-.145.474.474 0 00-.735.307.488.488 0 00.207.496c.327.216.712.327 1.103.32.232-.002.463-.032.689-.09a.688.688 0 00.523-.434.726.726 0 00-.025-.596.695.695 0 00.284-.582.658.658 0 00-.003-.07.654.654 0 00.53-.277A.722.722 0 0038 7.02l-.437-1.053c.666-1.394-.016-2.864-.616-3.888A4.81 4.81 0 0033.602.303c-1.371-.106-3.051.206-3.64 1.4a.504.504 0 00-.033.092c-.23.056-.456.125-.677.208a5.189 5.189 0 00-2.223 1.523 2.2 2.2 0 00-.513 2.14c.417 1.145 1.96 1.64 3.754 1.203z" fill="#fff"/></svg>