<svg width="62" height="62" fill="none" xmlns="http://www.w3.org/2000/svg"><g filter="url(#filter0_d_1_315)"><circle cx="31.001" cy="27" r="17" fill="#fff"/></g><g clip-path="url(#clip0_1_315)"><path d="M37 23.47a5.56 5.56 0 01-1.535.42 2.65 2.65 0 001.172-1.473 5.324 5.324 0 01-1.69.645 2.664 2.664 0 00-4.61 1.822c0 .212.018.415.062.608a7.544 7.544 0 01-5.493-2.787 2.669 2.669 0 00.819 3.562 2.632 2.632 0 01-1.204-.329v.03c0 1.295.924 2.37 2.135 2.618a2.63 2.63 0 01-.699.088 2.4 2.4 0 01-.504-.045 2.69 2.69 0 002.49 1.856 5.355 5.355 0 01-3.305 1.137c-.218 0-.428-.01-.637-.037a7.502 7.502 0 004.088 1.196c4.904 0 7.586-4.062 7.586-7.584 0-.117-.004-.231-.01-.344a5.316 5.316 0 001.336-1.384z" fill="#000"/></g><defs><clipPath id="clip0_1_315"><path fill="#fff" transform="translate(24 21)" d="M0 0h13v13H0z"/></clipPath><filter id="filter0_d_1_315" x=".001" y="0" width="62" height="62" filterUnits="userSpaceOnUse" color-interpolation-filters="sRGB"><feFlood flood-opacity="0" result="BackgroundImageFix"/><feColorMatrix in="SourceAlpha" values="0 0 0 0 0 0 0 0 0 0 0 0 0 0 0 0 0 0 127 0" result="hardAlpha"/><feOffset dy="4"/><feGaussianBlur stdDeviation="7"/><feColorMatrix values="0 0 0 0 0 0 0 0 0 0 0 0 0 0 0 0 0 0 0.15 0"/><feBlend in2="BackgroundImageFix" result="effect1_dropShadow_1_315"/><feBlend in="SourceGraphic" in2="effect1_dropShadow_1_315" result="shape"/></filter></defs></svg>