<svg width="96" height="30" viewBox="0 0 96 30" fill="none" xmlns="http://www.w3.org/2000/svg">
<path id="Vector" fill-rule="evenodd" clip-rule="evenodd" d="M15.0686 19.1045C22.16 23.3276 30.9282 25.8682 39.9856 25.8682C46.094 25.8682 52.8137 24.5747 58.9924 21.8903C59.9258 21.4845 60.7064 22.516 59.7936 23.2093C54.2799 27.3689 46.2881 29.5883 39.4073 29.5883C29.7594 29.5883 21.0737 25.9359 14.5027 19.8612C13.9865 19.3835 14.449 18.7325 15.0686 19.1045ZM64.44 18.6903C65.043 19.4554 64.2831 24.7607 61.3218 27.2928C60.8675 27.6818 60.4338 27.4746 60.6362 26.9589C61.3011 25.2595 62.7921 21.4507 62.0858 20.5249C61.3837 19.6034 57.4271 20.0895 55.6511 20.3051C55.1101 20.3727 55.0275 19.8908 55.5148 19.5442C58.6661 17.2741 63.837 17.9293 64.44 18.6903ZM74.8396 0.470558C79.1969 0.470558 81.5552 4.3005 81.5552 9.17036C81.5552 13.8754 78.9491 17.6081 74.8396 17.6081C70.5608 17.6081 68.2315 13.7781 68.2315 9.0055C68.2315 4.20327 70.5898 0.470558 74.8396 0.470558ZM46.4864 0.322601C47.9154 0.322601 49.7822 0.711515 50.9097 1.81907C52.2673 3.11622 52.2122 4.82541 52.2033 6.69292L52.2025 11.6729C52.2025 13.0806 52.7724 13.6978 53.3093 14.4587C53.4952 14.7293 53.5365 15.0548 53.2969 15.2577C52.6981 15.7692 51.6325 16.7203 51.046 17.253L51.0419 17.2445C50.8478 17.4221 50.5669 17.4347 50.348 17.3164C49.3733 16.4878 49.1957 16.1032 48.6629 15.3126C47.0522 16.9951 45.9082 17.4982 43.8224 17.4982C41.3485 17.4982 39.428 15.9383 39.428 12.8143C39.428 10.3751 40.7166 8.71381 42.5586 7.90217C44.1529 7.18352 46.379 7.05671 48.0806 6.85802V6.46911C48.0806 5.75469 48.1343 4.90923 47.7213 4.29205C47.3661 3.73827 46.6805 3.50999 46.0734 3.50999C44.9541 3.50999 43.9587 4.09759 43.7151 5.31505C43.6655 5.5856 43.4714 5.85192 43.2029 5.86461L40.3573 5.55178C40.1177 5.49683 39.8493 5.29815 39.9195 4.92192C40.572 1.38789 43.6944 0.322601 46.4864 0.322601ZM7.98953 0.322601C9.41855 0.322601 11.2854 0.711515 12.4129 1.81907C13.8419 3.18449 13.7056 5.00646 13.7056 6.98907V11.6729C13.7056 13.0806 14.2756 13.6978 14.8125 14.4587C15.0025 14.7293 15.0438 15.0548 14.8042 15.2577C14.2054 15.7692 13.1398 16.7203 12.5533 17.253L12.5451 17.2445C12.3509 17.4221 12.0701 17.4347 11.8512 17.3164C10.8765 16.4878 10.703 16.1032 10.1661 15.3126C8.55535 16.9951 7.41544 17.4982 5.3256 17.4982C2.85579 17.4982 0.931152 15.9383 0.931152 12.8143C0.931152 10.3751 2.22388 8.71381 4.06178 7.90217C5.65601 7.18352 7.88214 7.05671 9.58375 6.85802V6.46911C9.58375 5.75469 9.63745 4.90923 9.22856 4.29205C8.86924 3.73827 8.18364 3.50999 7.58064 3.50999C6.46138 3.50999 5.46189 4.09759 5.21822 5.31505C5.16865 5.5856 4.97454 5.85192 4.71021 5.86461L1.86043 5.55178C1.62088 5.49683 1.35655 5.29815 1.42264 4.92192C2.07933 1.38789 5.19757 0.322601 7.98953 0.322601ZM32.7289 0.470558C33.9597 0.470558 35.3061 0.990516 36.128 2.15725C37.0573 3.45504 36.8673 5.34042 36.8673 6.9933L36.8632 16.7288C36.8632 17.0374 36.6113 17.2868 36.2974 17.2868H33.365C33.0718 17.2657 32.8363 17.0247 32.8363 16.7288V8.55317C32.8363 7.90217 32.8941 6.27888 32.7537 5.66169C32.5348 4.62601 31.8781 4.33432 31.0273 4.33432C30.317 4.33432 29.5735 4.82046 29.272 5.59829C29.0375 6.20326 29.0029 7.12534 28.9991 7.91699L28.9994 16.7288C28.9994 17.0374 28.7475 17.2868 28.4336 17.2868H25.5012C25.2039 17.2657 24.9726 17.0247 24.9726 16.7288L24.9685 8.55317C24.9685 6.83266 25.2452 4.3005 23.1595 4.3005C21.26 4.3005 21.137 6.30019 21.1314 8.00061L21.1316 16.7288C21.1316 17.0374 20.8796 17.2868 20.5657 17.2868H17.6292C17.3484 17.2657 17.1254 17.0501 17.1047 16.7753V1.34984C17.1047 1.04125 17.3566 0.796062 17.6705 0.796062H20.4088C20.6938 0.808735 20.9209 1.03279 20.9416 1.31179V3.32822H20.9953C21.7098 1.37943 23.0521 0.470558 24.8611 0.470558C26.699 0.470558 27.8471 1.37943 28.6732 3.32822C29.3835 1.37943 30.9984 0.470558 32.7289 0.470558ZM91.6162 0.470558C92.9337 0.470558 94.2182 0.956699 95.0442 2.2883C95.8124 3.52268 95.8124 5.59829 95.8124 7.09052V16.8007C95.7794 17.0712 95.5357 17.2868 95.2466 17.2868H92.3018C92.0333 17.2657 91.8103 17.0627 91.7814 16.8007V8.42213C91.7814 6.73543 91.9714 4.26668 89.9435 4.26668C89.229 4.26668 88.5723 4.75705 88.246 5.50106C87.833 6.44375 87.7793 7.38221 87.7793 8.42213V16.7288C87.7752 17.0374 87.5191 17.2868 87.2052 17.2868H84.2811C83.9879 17.2657 83.7524 17.0247 83.7524 16.7288L83.7483 1.29911C83.7731 1.01588 84.0168 0.796062 84.3141 0.796062H87.0359C87.292 0.808735 87.5026 0.986291 87.5604 1.22725V3.58608H87.6141C88.436 1.47666 89.5883 0.470558 91.6162 0.470558ZM65.9723 0.753788C66.282 0.753788 66.5298 0.982062 66.5298 1.31179V3.2014C66.5257 3.51845 66.2655 3.93272 65.8029 4.58796L60.8014 11.897C62.6599 11.8505 64.6217 12.1337 66.3068 13.106C66.6868 13.3258 66.79 13.6471 66.819 13.9641V16.3187C66.819 16.64 66.472 17.0162 66.1086 16.8218C63.139 15.2281 59.1948 15.0548 55.9113 16.8387C55.5768 17.0247 55.2257 16.6527 55.2257 16.3314V14.0952C55.2257 13.7359 55.2298 13.1229 55.5809 12.5776L61.3755 4.07223H56.3326C56.0228 4.07223 55.775 3.84818 55.775 3.51845V1.31179C55.775 0.977835 56.0228 0.753788 56.3202 0.753788H65.9723ZM48.0806 9.26759C45.9536 9.26759 43.7109 9.7326 43.7109 12.2943C43.7109 13.5921 44.3718 14.4714 45.4993 14.4714C46.3212 14.4714 47.0646 13.9515 47.5313 13.106C48.1095 12.0661 48.0806 11.0896 48.0806 9.9186V9.26759ZM9.58375 9.26759C7.46087 9.26759 5.21822 9.7326 5.21822 12.2943C5.21822 13.5921 5.8749 14.4714 7.00243 14.4714C7.82845 14.4714 8.56774 13.9515 9.03445 13.106C9.61266 12.0661 9.58375 11.0896 9.58375 9.9186V9.26759ZM74.8644 3.61991C72.7002 3.61991 72.5639 6.6382 72.5639 8.51936C72.5639 10.4047 72.535 14.4291 74.8396 14.4291C77.1153 14.4291 77.2227 11.1826 77.2227 9.20418C77.2227 7.90217 77.169 6.34652 76.7849 5.11214C76.4545 4.03841 75.7978 3.61991 74.8644 3.61991Z" fill="#747873"/>
</svg>
