<svg width="95" height="15" viewBox="0 0 95 15" fill="none" xmlns="http://www.w3.org/2000/svg">
<g id="Group 119">
<path id="Vector" d="M14.054 5.62172C14.0117 5.49572 13.9339 5.385 13.8301 5.30324C13.7263 5.22148 13.6011 5.17225 13.4699 5.16164L9.63365 4.85333L7.97356 1.13659C7.92069 1.01688 7.8347 0.915202 7.72596 0.843832C7.61722 0.772462 7.49038 0.734447 7.36075 0.734375C7.23112 0.734303 7.10424 0.772177 6.99542 0.843427C6.88661 0.914676 6.8005 1.01626 6.7475 1.13591L5.08742 4.85333L1.25112 5.16164C1.12223 5.17196 0.999005 5.21963 0.896195 5.29893C0.793385 5.37824 0.715341 5.48582 0.671399 5.60881C0.627458 5.7318 0.61948 5.86499 0.64842 5.99244C0.677361 6.1199 0.741993 6.23622 0.834586 6.3275L3.66958 9.12271L2.66694 13.5139C2.63649 13.6468 2.64625 13.7859 2.69494 13.9132C2.74364 14.0404 2.82902 14.1499 2.94001 14.2275C3.051 14.305 3.18247 14.3471 3.31737 14.3481C3.45227 14.3491 3.58436 14.3091 3.6965 14.2333L7.36053 11.7627L11.0246 14.2333C11.1392 14.3103 11.2744 14.3499 11.4119 14.3469C11.5495 14.3438 11.6828 14.2982 11.794 14.2162C11.9051 14.1343 11.9888 14.0198 12.0338 13.8883C12.0787 13.7568 12.0828 13.6145 12.0454 13.4806L10.8146 9.12475L13.867 6.34656C14.0668 6.16416 14.1402 5.87967 14.054 5.62172Z" fill="#EEA404"/>
<path id="Vector_2" d="M34.2415 5.62172C34.1992 5.49572 34.1214 5.385 34.0176 5.30324C33.9138 5.22148 33.7886 5.17225 33.6574 5.16164L29.8211 4.85333L28.1611 1.13659C28.1082 1.01688 28.0222 0.915202 27.9135 0.843832C27.8047 0.772462 27.6779 0.734447 27.5483 0.734375C27.4186 0.734303 27.2917 0.772177 27.1829 0.843427C27.0741 0.914676 26.988 1.01626 26.935 1.13591L25.2749 4.85333L21.4386 5.16164C21.3097 5.17196 21.1865 5.21963 21.0837 5.29893C20.9809 5.37824 20.9028 5.48582 20.8589 5.60881C20.815 5.7318 20.807 5.86499 20.8359 5.99244C20.8649 6.1199 20.9295 6.23622 21.0221 6.3275L23.8571 9.12271L22.8544 13.5139C22.824 13.6468 22.8338 13.7859 22.8824 13.9132C22.9311 14.0404 23.0165 14.1499 23.1275 14.2275C23.2385 14.305 23.37 14.3471 23.5049 14.3481C23.6398 14.3491 23.7719 14.3091 23.884 14.2333L27.548 11.7627L31.2121 14.2333C31.3267 14.3103 31.4619 14.3499 31.5994 14.3469C31.737 14.3438 31.8703 14.2982 31.9815 14.2162C32.0926 14.1343 32.1763 14.0198 32.2213 13.8883C32.2662 13.7568 32.2703 13.6145 32.2329 13.4806L31.0021 9.12475L34.0545 6.34656C34.2543 6.16416 34.3277 5.87967 34.2415 5.62172Z" fill="#EEA404"/>
<path id="Vector_3" d="M54.429 5.62172C54.3867 5.49572 54.3089 5.385 54.2051 5.30324C54.1013 5.22148 53.9761 5.17225 53.8449 5.16164L50.0086 4.85333L48.3486 1.13659C48.2957 1.01688 48.2097 0.915202 48.101 0.843832C47.9922 0.772462 47.8654 0.734447 47.7358 0.734375C47.6061 0.734303 47.4792 0.772177 47.3704 0.843427C47.2616 0.914676 47.1755 1.01626 47.1225 1.13591L45.4624 4.85333L41.6261 5.16164C41.4972 5.17196 41.374 5.21963 41.2712 5.29893C41.1684 5.37824 41.0903 5.48582 41.0464 5.60881C41.0025 5.7318 40.9945 5.86499 41.0234 5.99244C41.0524 6.1199 41.117 6.23622 41.2096 6.3275L44.0446 9.12271L43.0419 13.5139C43.0115 13.6468 43.0213 13.7859 43.0699 13.9132C43.1186 14.0404 43.204 14.1499 43.315 14.2275C43.426 14.305 43.5575 14.3471 43.6924 14.3481C43.8273 14.3491 43.9594 14.3091 44.0715 14.2333L47.7355 11.7627L51.3996 14.2333C51.5142 14.3103 51.6494 14.3499 51.7869 14.3469C51.9245 14.3438 52.0578 14.2982 52.169 14.2162C52.2801 14.1343 52.3638 14.0198 52.4088 13.8883C52.4537 13.7568 52.4578 13.6145 52.4204 13.4806L51.1896 9.12475L54.242 6.34656C54.4418 6.16416 54.5152 5.87967 54.429 5.62172Z" fill="#EEA404"/>
<path id="Vector_4" d="M74.6165 5.62172C74.5742 5.49572 74.4964 5.385 74.3926 5.30324C74.2888 5.22148 74.1636 5.17225 74.0324 5.16164L70.1961 4.85333L68.5361 1.13659C68.4832 1.01688 68.3972 0.915202 68.2885 0.843832C68.1797 0.772462 68.0529 0.734447 67.9233 0.734375C67.7936 0.734303 67.6667 0.772177 67.5579 0.843427C67.4491 0.914676 67.363 1.01626 67.31 1.13591L65.6499 4.85333L61.8136 5.16164C61.6847 5.17196 61.5615 5.21963 61.4587 5.29893C61.3559 5.37824 61.2778 5.48582 61.2339 5.60881C61.19 5.7318 61.182 5.86499 61.2109 5.99244C61.2399 6.1199 61.3045 6.23622 61.3971 6.3275L64.2321 9.12271L63.2294 13.5139C63.199 13.6468 63.2088 13.7859 63.2574 13.9132C63.3061 14.0404 63.3915 14.1499 63.5025 14.2275C63.6135 14.305 63.745 14.3471 63.8799 14.3481C64.0148 14.3491 64.1469 14.3091 64.259 14.2333L67.923 11.7627L71.5871 14.2333C71.7017 14.3103 71.8369 14.3499 71.9744 14.3469C72.112 14.3438 72.2453 14.2982 72.3565 14.2162C72.4676 14.1343 72.5513 14.0198 72.5963 13.8883C72.6412 13.7568 72.6453 13.6145 72.6079 13.4806L71.3771 9.12475L74.4295 6.34656C74.6293 6.16416 74.7027 5.87967 74.6165 5.62172Z" fill="#EEA404"/>
<path id="Vector_5" d="M94.804 5.62172C94.7617 5.49572 94.6839 5.385 94.5801 5.30324C94.4763 5.22148 94.3511 5.17225 94.2199 5.16164L90.3836 4.85333L88.7236 1.13659C88.6707 1.01688 88.5847 0.915202 88.476 0.843832C88.3672 0.772462 88.2404 0.734447 88.1108 0.734375C87.9811 0.734303 87.8542 0.772177 87.7454 0.843427C87.6366 0.914676 87.5505 1.01626 87.4975 1.13591L85.8374 4.85333L82.0011 5.16164C81.8722 5.17196 81.749 5.21963 81.6462 5.29893C81.5434 5.37824 81.4653 5.48582 81.4214 5.60881C81.3775 5.7318 81.3695 5.86499 81.3984 5.99244C81.4274 6.1199 81.492 6.23622 81.5846 6.3275L84.4196 9.12271L83.4169 13.5139C83.3865 13.6468 83.3963 13.7859 83.4449 13.9132C83.4936 14.0404 83.579 14.1499 83.69 14.2275C83.801 14.305 83.9325 14.3471 84.0674 14.3481C84.2023 14.3491 84.3344 14.3091 84.4465 14.2333L88.1105 11.7627L91.7746 14.2333C91.8892 14.3103 92.0244 14.3499 92.1619 14.3469C92.2995 14.3438 92.4328 14.2982 92.544 14.2162C92.6551 14.1343 92.7388 14.0198 92.7838 13.8883C92.8287 13.7568 92.8328 13.6145 92.7954 13.4806L91.5646 9.12475L94.617 6.34656C94.8168 6.16416 94.8902 5.87967 94.804 5.62172Z" fill="#A7A5A0"/>
</g>
</svg>
