<svg width="19" height="19" viewBox="0 0 19 19" fill="none" xmlns="http://www.w3.org/2000/svg">
<g id="Group 1135">
<circle id="Ellipse 73" cx="9.80284" cy="9.6295" r="8.50746" stroke="white" stroke-width="0.680597"/>
<path id="Vector" d="M11.4517 7.08069C11.568 6.96812 11.7227 6.90589 11.8833 6.90712C12.0438 6.90836 12.1976 6.97297 12.3122 7.08732C12.4268 7.20167 12.4933 7.35681 12.4975 7.52002C12.5017 7.68322 12.4435 7.84172 12.335 7.96207L9.04133 12.1507C8.9847 12.2127 8.91634 12.2625 8.84035 12.297C8.76437 12.3316 8.68231 12.3502 8.59908 12.3518C8.51586 12.3533 8.43318 12.3378 8.35598 12.3062C8.27879 12.2745 8.20867 12.2273 8.14982 12.1675L5.9656 9.94641C5.90478 9.88877 5.85599 9.81927 5.82215 9.74205C5.78831 9.66482 5.77012 9.58146 5.76865 9.49693C5.76718 9.4124 5.78248 9.32843 5.81361 9.25004C5.84475 9.17165 5.8911 9.10044 5.94989 9.04066C6.00868 8.98088 6.07871 8.93375 6.15579 8.90209C6.23288 8.87043 6.31546 8.85488 6.39858 8.85637C6.48171 8.85786 6.56369 8.87636 6.63964 8.91077C6.71558 8.94518 6.78393 8.99479 6.84061 9.05664L8.56916 10.8135L11.436 7.09916C11.4412 7.0927 11.4467 7.08653 11.4525 7.08069H11.4517Z" fill="white"/>
</g>
</svg>
