<svg width="19" height="19" viewBox="0 0 19 19" fill="none" xmlns="http://www.w3.org/2000/svg">
<g id="Group 1134">
<circle id="Ellipse 73" cx="9.34044" cy="9.40513" r="8.50746" stroke="#5ABA4A" stroke-width="0.680597"/>
<path id="Vector" d="M10.3687 6.85633C10.485 6.74376 10.6397 6.68152 10.8003 6.68276C10.9608 6.68399 11.1146 6.7486 11.2292 6.86295C11.3438 6.9773 11.4103 7.13245 11.4145 7.29565C11.4187 7.45885 11.3605 7.61735 11.252 7.7377L7.95832 11.9263C7.90169 11.9883 7.83333 12.0381 7.75735 12.0727C7.68136 12.1072 7.5993 12.1258 7.51607 12.1274C7.43285 12.129 7.35017 12.1135 7.27298 12.0818C7.19578 12.0501 7.12566 12.003 7.06681 11.9431L4.8826 9.72204C4.82177 9.66441 4.77298 9.5949 4.73914 9.51768C4.70531 9.44046 4.68711 9.35709 4.68564 9.27256C4.68418 9.18803 4.69947 9.10407 4.73061 9.02568C4.76174 8.94729 4.80809 8.87608 4.86688 8.8163C4.92567 8.75652 4.9957 8.70939 5.07279 8.67773C5.14988 8.64606 5.23245 8.63051 5.31558 8.632C5.3987 8.6335 5.48069 8.652 5.55663 8.68641C5.63257 8.72081 5.70092 8.77043 5.7576 8.83228L7.48615 10.5891L10.353 6.8748C10.3582 6.86833 10.3637 6.86217 10.3695 6.85633H10.3687Z" fill="#5ABA4A"/>
</g>
</svg>
