<svg width="105" height="67" viewBox="0 0 105 67" fill="none" xmlns="http://www.w3.org/2000/svg">
<rect x="0.850098" y="65.6321" width="47.2491" height="7.46039" rx="3.7302" transform="rotate(-90 0.850098 65.6321)" fill="#D3D3D3"/>
<rect x="0.850098" y="66.8757" width="27.3548" height="7.46039" rx="3.7302" transform="rotate(-90 0.850098 66.8757)" fill="#DA890F"/>
<rect x="16.8447" y="66.967" width="63.9761" height="7.48657" rx="3.74328" transform="rotate(-90 16.8447 66.967)" fill="#D3D3D3"/>
<rect x="17.0142" y="66.8759" width="34.8152" height="7.46039" rx="3.7302" transform="rotate(-90 17.0142 66.8759)" fill="#DA890F"/>
<rect x="33.1792" y="66.967" width="52.406" height="7.48657" rx="3.74328" transform="rotate(-90 33.1792 66.967)" fill="#D3D3D3"/>
<rect x="33.1787" y="66.8759" width="29.8416" height="7.46039" rx="3.7302" transform="rotate(-90 33.1787 66.8759)" fill="#DA890F"/>
<rect x="49.5137" y="66.967" width="55.809" height="7.48657" rx="3.74328" transform="rotate(-90 49.5137 66.967)" fill="#D3D3D3"/>
<rect x="49.3428" y="66.8759" width="34.8152" height="7.46039" rx="3.7302" transform="rotate(-90 49.3428 66.8759)" fill="#DA890F"/>
<rect x="65.1675" y="66.967" width="66.0179" height="7.48657" rx="3.74328" transform="rotate(-90 65.1675 66.967)" fill="#D3D3D3"/>
<rect x="65.5068" y="66.8759" width="27.3548" height="7.46039" rx="3.7302" transform="rotate(-90 65.5068 66.8759)" fill="#DA890F"/>
<rect x="80.5015" y="66.967" width="52.406" height="7.48657" rx="3.74328" transform="rotate(-90 80.5015 66.967)" fill="#D3D3D3"/>
<rect x="80.6709" y="66.8759" width="33.5718" height="7.46039" rx="3.7302" transform="rotate(-90 80.6709 66.8759)" fill="#DA890F"/>
<rect x="96.8359" y="66.967" width="61.2537" height="7.48657" rx="3.74328" transform="rotate(-90 96.8359 66.967)" fill="#D3D3D3"/>
<rect x="96.8354" y="66.8759" width="28.5982" height="7.46039" rx="3.7302" transform="rotate(-90 96.8354 66.8759)" fill="#DA890F"/>
</svg>
