<svg width="74" height="74" viewBox="0 0 74 74" fill="none" xmlns="http://www.w3.org/2000/svg">
<g id="Group 1159">
<path id="Vector" d="M73.25 13.8771C73.25 6.27449 67.1349 0.0895996 59.6181 0.0895996C52.1013 0.0895996 45.9854 6.27449 45.9854 13.8771C45.9854 18.9718 48.826 23.6923 53.2706 26.0656V47.6181C48.826 49.9914 45.9854 54.7119 45.9854 59.8057C45.9854 67.4083 52.1013 73.5941 59.6181 73.5941C67.1349 73.5941 73.25 67.4083 73.25 59.8057C73.25 54.7119 70.4094 49.9914 65.9648 47.6181V26.0656C70.4094 23.6923 73.25 18.9718 73.25 13.8771ZM64.6669 49.0151C68.777 50.9864 71.4331 55.2224 71.4331 59.8057C71.4331 66.3953 66.1333 71.7565 59.6181 71.7565C53.1029 71.7565 47.8022 66.3953 47.8022 59.8057C47.8022 55.2224 50.4583 50.9864 54.5685 49.0151C54.8852 48.8635 55.0875 48.5405 55.0875 48.1851V25.4985C55.0875 25.1432 54.8852 24.8202 54.5685 24.6686C50.4583 22.6973 47.8022 18.4612 47.8022 13.8771C47.8022 7.28751 53.1029 1.92721 59.6181 1.92721C66.1333 1.92721 71.4331 7.28751 71.4331 13.8771C71.4331 18.4612 68.777 22.6973 64.6669 24.6686C64.3502 24.8202 64.1479 25.1432 64.1479 25.4985V48.1851C64.1479 48.5405 64.3502 48.8635 64.6669 49.0151Z" fill="#747873"/>
<path id="Vector_2" d="M62.4521 54.7537C62.1594 55.1665 62.2534 55.7407 62.6606 56.0359C64.0304 57.0283 64.8474 58.6362 64.8474 60.3375C64.8474 60.8453 65.2538 61.2563 65.7559 61.2563C66.258 61.2563 66.6643 60.8453 66.6643 60.3375C66.6643 58.0458 65.5634 55.8789 63.7199 54.5429C63.31 54.2459 62.744 54.341 62.4521 54.7537Z" fill="#747873"/>
<path id="Vector_3" d="M65.7559 14.6676C66.258 14.6676 66.6643 14.2566 66.6643 13.7487C66.6643 11.4562 65.5634 9.28931 63.7199 7.95327C63.31 7.65627 62.744 7.75139 62.4521 8.16413C62.1594 8.57688 62.2534 9.15113 62.6606 9.44633C64.0304 10.4387 64.8474 12.0475 64.8474 13.7487C64.8474 14.2566 65.2538 14.6676 65.7559 14.6676Z" fill="#747873"/>
<path id="Vector_4" d="M36.525 68.0229V40.125C36.525 36.7898 35.1082 33.6422 32.7129 31.4439C35.2883 30.7512 37.1913 28.3716 37.1913 25.5515V15.0157C37.1913 11.6545 34.4881 8.91965 31.1649 8.91965H24.3747V1.92721H25.2361C25.7382 1.92721 26.1445 1.51626 26.1445 1.00841C26.1445 0.50055 25.7382 0.0895996 25.2361 0.0895996H12.5304C12.0282 0.0895996 11.6219 0.50055 11.6219 1.00841C11.6219 1.51626 12.0282 1.92721 12.5304 1.92721H13.3918V8.91965H6.60246C3.27922 8.91965 0.575195 11.6545 0.575195 15.0157V25.5515C0.575195 28.3716 2.47812 30.7503 5.05351 31.4439C2.65821 33.6422 1.24144 36.7898 1.24144 40.125V68.0229C1.24144 71.0952 3.71214 73.5941 6.74973 73.5941H31.0167C34.0543 73.5941 36.525 71.0952 36.525 68.0229ZM15.2087 1.92721H22.5578V8.91965H15.2087V1.92721ZM3.05832 68.0229V61.6747H10.073C10.5751 61.6747 10.9814 61.2638 10.9814 60.7559C10.9814 60.2481 10.5751 59.8371 10.073 59.8371H3.05832V52.3619H10.073C10.5751 52.3619 10.9814 51.951 10.9814 51.4431C10.9814 50.9353 10.5751 50.5243 10.073 50.5243H3.05832V43.0501H10.073C10.5751 43.0501 10.9814 42.6391 10.9814 42.1313C10.9814 41.6234 10.5751 41.2124 10.073 41.2124H3.05832V40.125C3.05832 36.5789 4.95858 33.2851 8.01835 31.5273C8.37676 31.3218 8.5533 30.8974 8.44773 30.4936C8.34216 30.0908 7.98198 29.8099 7.56945 29.8099H6.60246C4.2808 29.8099 2.39207 27.8996 2.39207 25.5515V15.0157C2.39207 12.6676 4.2808 10.7573 6.60246 10.7573H31.1649C33.4856 10.7573 35.3744 12.6676 35.3744 15.0157V25.5515C35.3744 27.8996 33.4856 29.8099 31.1649 29.8099H30.197C29.7845 29.8099 29.4243 30.0908 29.3187 30.4936C29.2132 30.8974 29.3897 31.3218 29.7481 31.5273C32.8079 33.2851 34.7081 36.5789 34.7081 40.125V41.2124H27.6944C27.1922 41.2124 26.7859 41.6234 26.7859 42.1313C26.7859 42.6391 27.1922 43.0501 27.6944 43.0501H34.7081V50.5243H27.6944C27.1922 50.5243 26.7859 50.9353 26.7859 51.4431C26.7859 51.951 27.1922 52.3619 27.6944 52.3619H34.7081V59.8371H27.6944C27.1922 59.8371 26.7859 60.2481 26.7859 60.7559C26.7859 61.2638 27.1922 61.6747 27.6944 61.6747H34.7081V68.0229C34.7081 70.0813 33.0518 71.7565 31.0167 71.7565H6.74973C4.71462 71.7565 3.05832 70.0813 3.05832 68.0229Z" fill="#747873"/>
</g>
</svg>
