<svg width="96" height="33" viewBox="0 0 96 33" fill="none" xmlns="http://www.w3.org/2000/svg">
<g id="Group 516">
<path id="Vector" d="M12.2751 0.96167H13.1216C16.0603 1.02633 18.9511 2.2217 21.0274 4.33779C20.2608 5.12933 19.4782 5.88851 18.7275 6.68006C17.5616 5.61392 16.1562 4.79008 14.6229 4.49931C12.355 4.01472 9.91142 4.45084 8.01077 5.75935C5.93449 7.13236 4.52905 9.45852 4.22564 11.9461C3.89022 14.4015 4.57698 16.986 6.15813 18.8922C7.67543 20.7499 9.99127 21.9129 12.387 21.9936C14.6229 22.1229 16.9547 21.4283 18.5838 19.8453C19.8615 18.7307 20.4524 17.0345 20.6441 15.3868C17.9928 15.3868 15.3416 15.403 12.6904 15.3868V12.0592H23.8543C24.4293 15.6291 23.5987 19.6514 20.9156 22.2036C19.1269 24.0128 16.6513 25.079 14.1278 25.289C11.6842 25.5313 9.16073 25.0629 6.98867 23.8675C4.38534 22.4621 2.30907 20.0876 1.28689 17.293C0.328643 14.7245 0.312642 11.8169 1.20704 9.23233C2.02158 6.87388 3.58673 4.79009 5.59915 3.33631C7.53165 1.89864 9.87941 1.10709 12.2751 0.96167Z" fill="#747873"/>
<path id="Vector_2" d="M76.3198 1.80179H79.7377V24.8691C78.6044 24.8691 77.4539 24.8853 76.3198 24.853C76.3361 17.18 76.3198 9.49091 76.3198 1.80179Z" fill="#747873"/>
<path id="Vector_3" d="M31.4568 9.79786C33.565 9.39403 35.8489 9.84633 37.5897 11.1225C39.1709 12.2532 40.2729 14.0301 40.6083 15.9685C41.0395 18.2139 40.4965 20.6692 39.0591 22.4461C37.5099 24.433 34.9705 25.4992 32.4949 25.3376C30.2269 25.2084 28.023 24.0615 26.6814 22.1876C25.1641 20.12 24.7967 17.277 25.6273 14.8539C26.4577 12.2532 28.8055 10.2663 31.4568 9.79786ZM31.9359 12.867C31.0735 13.0932 30.2749 13.5939 29.6999 14.3047C28.1507 16.1785 28.2465 19.2315 29.9555 20.9762C30.9297 21.9776 32.3991 22.4461 33.7567 22.1715C35.0183 21.9453 36.1204 21.0892 36.7273 19.9584C37.7814 18.0362 37.478 15.387 35.8649 13.8847C34.8267 12.9155 33.3095 12.5117 31.9359 12.867Z" fill="#747873"/>
<path id="Vector_4" d="M48.3863 9.79772C50.798 9.32924 53.4332 10.0077 55.2376 11.72C58.177 14.3853 58.4963 19.3768 55.9888 22.446C54.4717 24.3844 52.0118 25.4506 49.5842 25.3375C47.2683 25.2728 44.9844 24.1098 43.6109 22.1875C42.0617 20.0714 41.7263 17.1638 42.6047 14.6923C43.4831 12.1723 45.783 10.25 48.3863 9.79772ZM48.8655 12.8669C48.003 13.0931 47.2044 13.5938 46.6295 14.2884C45.0962 16.1299 45.1601 19.1345 46.8051 20.8953C47.7794 21.9452 49.2967 22.4622 50.7021 22.1714C51.9479 21.9291 53.0657 21.0891 53.6732 19.9584C54.711 18.0199 54.4073 15.3707 52.7783 13.8684C51.7403 12.8992 50.223 12.5115 48.8655 12.8669Z" fill="#747873"/>
<path id="Vector_5" d="M62.7444 10.7345C64.5815 9.57143 67.0245 9.24836 69.0053 10.2498C69.6283 10.5245 70.1394 10.9929 70.6342 11.4614C70.6505 11.0253 70.6342 10.573 70.6505 10.1207C71.7202 10.1368 72.7906 10.1207 73.8765 10.1368V24.3842C73.8602 26.5327 73.3172 28.8103 71.7838 30.3772C70.1075 32.1056 67.5356 32.6387 65.22 32.2834C62.7444 31.9118 60.588 30.0864 59.6302 27.7765C60.588 27.3081 61.5947 26.9365 62.5843 26.5004C63.1436 27.8249 64.2777 28.9557 65.6993 29.2142C67.1208 29.4726 68.7652 29.1173 69.692 27.9219C70.6824 26.6942 70.6824 25.0142 70.6342 23.512C69.8994 24.2389 69.0534 24.885 68.0312 25.1273C65.8111 25.7573 63.3673 24.982 61.6584 23.4635C59.9332 21.9451 58.9109 19.6028 59.0072 17.2767C59.0554 14.6436 60.5243 12.1075 62.7444 10.7345ZM66.0504 12.8021C65.0763 12.9636 64.1659 13.5129 63.5429 14.2721C62.0414 16.0813 62.0414 18.9728 63.5592 20.7497C64.4214 21.7997 65.8111 22.3812 67.1526 22.2359C68.4141 22.1066 69.5801 21.2989 70.2031 20.1844C71.2572 18.2944 71.0816 15.7259 69.6601 14.0783C68.7816 13.0606 67.3764 12.5598 66.0504 12.8021Z" fill="#747873"/>
<path id="Vector_6" d="M83.8424 11.5584C85.7595 9.74921 88.7136 9.13538 91.1737 10.0885C93.5056 10.9769 94.9909 13.2222 95.7412 15.5322C92.2752 16.986 88.8255 18.4237 85.3602 19.8775C85.8387 20.7983 86.5736 21.6383 87.564 21.9775C88.9537 22.4782 90.6144 22.3005 91.7804 21.3636C92.2434 21.0083 92.6108 20.5398 92.9619 20.0875C93.8404 20.6852 94.719 21.2667 95.5975 21.8644C94.3516 23.7544 92.2597 25.079 90.0078 25.289C87.5158 25.5959 84.8646 24.6267 83.252 22.6559C80.6008 19.5544 80.8564 14.353 83.8424 11.5584ZM85.5513 14.5468C85.0084 15.3384 84.7846 16.3075 84.8009 17.2606C87.1166 16.2914 89.4329 15.3222 91.7485 14.3368C91.3648 13.4322 90.4389 12.883 89.4966 12.7376C87.9796 12.463 86.398 13.2869 85.5513 14.5468Z" fill="#747873"/>
</g>
</svg>
