<svg width="34" height="33" viewBox="0 0 34 33" fill="none" xmlns="http://www.w3.org/2000/svg">
<g id="Group 9730">
<rect id="Rectangle 476" x="0.964355" y="0.146118" width="32.6687" height="32.6687" rx="16.3343" fill="#FFF1EB"/>
<path id="Vector" d="M24.0028 11.4197C23.1592 10.5042 22.0018 10 20.7433 10C19.8027 10 18.9413 10.2976 18.1829 10.8844C17.8002 11.1806 17.4535 11.543 17.1477 11.966C16.8422 11.5431 16.4953 11.1806 16.1125 10.8844C15.3542 10.2976 14.4928 10 13.5522 10C12.2937 10 11.1361 10.5042 10.2926 11.4197C9.45913 12.3245 9 13.5606 9 14.9004C9 16.2795 9.51359 17.5418 10.6162 18.8732C11.6026 20.0641 13.0203 21.2731 14.662 22.673C15.2226 23.1511 15.858 23.693 16.5178 24.2703C16.6921 24.423 16.9158 24.5071 17.1477 24.5071C17.3796 24.5071 17.6034 24.423 17.7775 24.2705C18.4372 23.6932 19.073 23.151 19.6339 22.6727C21.2753 21.273 22.693 20.0641 23.6794 18.8731C24.782 17.5418 25.2955 16.2795 25.2955 14.9003C25.2955 13.5606 24.8364 12.3245 24.0028 11.4197Z" fill="#FF6726"/>
</g>
</svg>
