<svg width="145" height="33" viewBox="0 0 145 33" fill="none" xmlns="http://www.w3.org/2000/svg">
<g id="Group 517">
<path id="Vector" d="M15.0838 17.3247V32.1408H0.480957V17.3247H15.0838ZM31.2112 17.3247V32.1408H16.6084V17.3247H31.2112ZM75.663 12.1523C76.2347 12.1523 76.8302 12.2248 77.402 12.3457C78.0213 12.4665 78.474 12.6599 78.8789 12.8291L78.9027 12.8532V15.9228L78.7836 15.8261C77.8546 15.1494 76.8303 14.811 75.8297 14.811C74.6386 14.811 73.6619 15.2219 72.9234 16.0195C72.185 16.8171 71.8276 17.9047 71.8276 19.2824C71.8276 20.6118 72.185 21.6752 72.8996 22.4487C73.5905 23.2463 74.5672 23.6088 75.8059 23.6088C76.2347 23.6088 76.735 23.5122 77.2829 23.3188C77.807 23.1496 78.331 22.8596 78.7836 22.5212L78.9027 22.4245V25.3249L78.8789 25.3491C77.8784 25.9291 76.6158 26.2433 75.1389 26.2433C73.8525 26.2433 72.709 25.9533 71.7323 25.3974C70.708 24.8415 69.9457 24.0197 69.3978 23.0046C68.8499 21.9653 68.564 20.8293 68.564 19.5483C68.564 18.0739 68.8499 16.7929 69.4216 15.6811C69.9695 14.5935 70.8271 13.7234 71.8991 13.0949C72.9711 12.4665 74.2575 12.1523 75.663 12.1523ZM96.0546 12.1765C98.1032 12.1765 99.7469 12.7807 100.867 14.0134C102.034 15.2461 102.606 16.938 102.606 19.0649C102.606 21.216 102.01 22.9562 100.771 24.2614C99.5564 25.5666 97.865 26.2192 95.7448 26.2192C93.72 26.2192 92.1001 25.5908 90.909 24.3823C89.7179 23.1496 89.0985 21.4577 89.0985 19.3791C89.0985 17.1555 89.6941 15.3911 90.9328 14.1101C92.1478 12.8291 93.8868 12.1765 96.0546 12.1765ZM121.234 12.1765C123.283 12.1765 124.927 12.7807 126.046 14.0134C127.214 15.2461 127.785 16.938 127.785 19.0649C127.785 21.216 127.19 22.9562 125.951 24.2614C124.736 25.5666 123.045 26.2192 120.925 26.2192C118.9 26.2192 117.28 25.5908 116.089 24.3823C114.898 23.1496 114.278 21.4577 114.278 19.3791C114.278 17.1555 114.898 15.3911 116.113 14.1101C117.328 12.8291 119.067 12.1765 121.234 12.1765ZM109.228 12.1523C109.657 12.1523 110.181 12.2007 110.753 12.2973C111.324 12.4182 111.801 12.5632 112.158 12.7082L112.23 12.7324V15.6811L112.111 15.5844C111.729 15.2944 111.253 15.0769 110.729 14.9319C110.205 14.7868 109.657 14.6902 109.133 14.6902C108.537 14.6902 108.132 14.811 107.775 15.0527C107.418 15.2944 107.275 15.6569 107.275 16.0195C107.275 16.4546 107.394 16.7929 107.632 17.0346C107.918 17.3005 108.537 17.6147 109.514 18.0256C110.753 18.509 111.61 19.1132 112.301 19.6933C112.825 20.2976 113.063 21.0952 113.063 21.9895C113.063 23.2705 112.563 24.2614 111.61 25.0349C110.681 25.8325 109.371 26.195 107.775 26.195C107.251 26.195 106.655 26.0983 105.988 25.9775C105.321 25.8083 104.773 25.6633 104.321 25.4457L104.249 25.4216V22.352L104.368 22.4487C104.869 22.8112 105.464 23.1254 106.107 23.343C106.751 23.5605 107.298 23.6572 107.823 23.6572C109.18 23.6572 109.847 23.2221 109.847 22.3278C109.847 22.0136 109.776 21.7719 109.657 21.5786C109.49 21.4094 109.276 21.1918 108.942 20.9985C108.609 20.8051 108.061 20.5634 107.346 20.2492C106.489 19.8867 105.869 19.5 105.44 19.1616C105.012 18.799 104.702 18.364 104.487 17.9047C104.273 17.4455 104.178 16.8896 104.178 16.2612C104.178 15.0769 104.63 14.0617 105.583 13.3125C106.536 12.5149 107.751 12.1523 109.228 12.1523ZM135.099 5.81981C135.837 5.81981 136.409 5.91649 136.838 6.06151L136.909 6.08568V8.81688L136.79 8.74437C136.29 8.52684 135.837 8.43016 135.408 8.43016C134.789 8.43016 134.289 8.62352 133.955 9.01024C133.622 9.39695 133.431 10.0012 133.431 10.7746V12.4665H138.1V9.44529L138.172 9.42112L141.126 8.52684L141.221 8.50267V12.4665H144.342V15.0527H141.173V21.3852C141.173 22.207 141.316 22.7629 141.602 23.1013C141.912 23.4638 142.341 23.6088 142.96 23.6088C143.127 23.6088 143.341 23.5847 143.579 23.5122C143.865 23.4396 144.032 23.343 144.222 23.2221L144.342 23.1254V25.7116L144.318 25.7358C144.127 25.8325 143.794 25.9533 143.341 26.05C142.912 26.1225 142.46 26.195 142.031 26.195C139.41 26.195 138.1 24.769 138.1 21.9411V15.0527H133.431V25.8566H130.31V15.0285H128.143V12.4665H130.31V10.6054C130.31 9.66282 130.525 8.84105 130.93 8.11595C131.335 7.36668 131.883 6.81078 132.621 6.39989C133.36 6.03734 134.17 5.81981 135.099 5.81981ZM60.3217 7.1975V25.8566H57.1533V14.0134C57.1771 13.2641 57.2248 12.0315 57.2963 10.6538H57.2248C57.1057 11.1855 56.9866 11.8139 56.8675 12.1281L51.3884 25.8808H49.2921L43.7654 12.249C43.6463 11.9106 43.4795 11.3789 43.3366 10.6538H43.2651C43.289 10.9438 43.3366 11.3305 43.3604 11.8381C43.3775 12.5632 43.3823 13.1896 43.3837 13.7527L43.3842 25.9291H40.4065V7.24584H44.9088L49.5065 18.9682C49.9353 19.9834 50.1973 20.8293 50.3403 21.3852H50.4117L51.2693 18.9199L55.9861 7.1975H60.3217ZM66.4201 12.4665V25.8566H63.3232V12.4665H66.4201ZM87.6216 12.249C88.1456 12.249 88.5745 12.3215 88.7889 12.4665L88.8603 12.4907V15.6328L88.7412 15.5361C88.5745 15.4153 88.3363 15.3186 88.0027 15.2219C87.6454 15.1736 87.3596 15.101 87.0737 15.101C86.2637 15.101 85.5967 15.4636 85.0726 16.1887C84.5486 16.8896 84.3103 17.8564 84.3103 19.0166V25.8566H81.2135V12.4665H84.3103V14.811H84.3342C84.6438 14.0617 85.0012 13.4333 85.5253 12.9983C86.1446 12.4907 86.8593 12.249 87.6216 12.249ZM95.9116 14.7627C94.792 14.7627 93.9105 15.1494 93.2673 15.9228C92.648 16.6963 92.3145 17.7839 92.3145 19.2099C92.3145 20.5876 92.6242 21.6752 93.2673 22.4245C93.9105 23.2221 94.8158 23.5847 95.9354 23.5847C97.055 23.5847 97.9603 23.2221 98.532 22.4729C99.1275 21.7236 99.3896 20.5876 99.4373 19.1374C99.4373 17.7114 99.1037 16.6237 98.4844 15.8745C97.865 15.1252 97.0074 14.7627 95.9116 14.7627ZM121.068 14.7627C119.948 14.7627 119.067 15.1494 118.423 15.9228C117.804 16.6963 117.47 17.7839 117.47 19.2099C117.47 20.5876 117.78 21.6752 118.423 22.4245C119.067 23.2221 119.948 23.5847 121.091 23.5847C122.211 23.5847 123.116 23.2221 123.688 22.4729C124.284 21.7236 124.593 20.5876 124.593 19.1374C124.593 17.7114 124.26 16.6237 123.64 15.8745C123.021 15.1252 122.14 14.7627 121.068 14.7627ZM15.0838 0.96167V15.7778H0.480957V0.96167H15.0838ZM31.2112 0.96167V15.7778H16.6084V0.96167H31.2112ZM64.8955 6.81078C65.4434 6.81078 65.896 7.00414 66.2057 7.34251C66.563 7.70506 66.7536 8.14012 66.7536 8.64769C66.7536 9.15526 66.563 9.59031 66.2057 9.92869C65.8721 10.2429 65.4195 10.4363 64.8955 10.4363C64.3714 10.4363 63.9426 10.2671 63.5853 9.92869C63.2279 9.59031 63.0373 9.15526 63.0373 8.64769C63.0373 8.11595 63.2279 7.68089 63.5853 7.34251C63.9426 7.00414 64.3714 6.81078 64.8955 6.81078Z" fill="#747873"/>
</g>
</svg>
