<svg width="95" height="27" viewBox="0 0 95 27" fill="none" xmlns="http://www.w3.org/2000/svg">
<path id="Vector" d="M3.88792 0.683807L9.09637 15.3581V0.683807H13.128V24.8795C11.7007 25.1323 10.2483 25.208 8.74584 25.4099L4.1632 11.8725V25.9909C2.73591 26.1424 1.43379 26.3444 0.081543 26.5465V0.683807H3.88792ZM85.1465 0.683807L87.7758 7.47783L90.5806 0.683807H94.9628L89.8793 12.9838L94.9628 26.5465C93.4602 26.3444 91.9577 26.0666 90.4552 25.814L87.5756 18.3382L84.646 25.208C83.1933 24.9552 81.7911 24.8795 80.3389 24.6774L85.4974 12.8321L80.8396 0.683807H85.1465ZM28.1027 0.683807V4.72486H21.016V10.155C22.5687 10.155 24.9476 10.0792 26.3749 10.0792V14.1202C24.5969 14.1202 22.5185 14.1202 21.016 14.196V20.2071C23.37 20.0556 25.7239 19.8534 28.1027 19.7776V23.6669L17.0093 24.5511V0.683807H28.1027ZM77.4087 0.683807V24.4754C76.1066 24.3241 74.7544 24.2483 73.4773 24.1724V0.683807H77.4087ZM63.2855 0.683807V19.5504C65.5643 19.6008 67.868 19.7779 70.0968 19.904V23.8945C66.5159 23.6671 62.935 23.4401 59.279 23.3641V0.683807H63.2855ZM43.0023 0.683807L43.0022 4.72495H38.8453V23.3137C37.4931 23.3137 36.1409 23.3137 34.8389 23.3641V4.72495H30.6821V0.683807H43.0023ZM56.7748 0.683807V4.72486H49.5128V9.87726H54.9969V13.9182H49.5128V23.0864H45.5811V0.683807H56.7748Z" fill="#747873"/>
</svg>
