<svg width="93" height="92" viewBox="0 0 93 92" fill="none" xmlns="http://www.w3.org/2000/svg">
<g id="bx:bxs-quote-left">
<path id="Vector" d="M78.127 67.7646C72.7956 73.5444 64.7282 76.4742 54.1528 76.4742L50.3528 76.4742L50.3528 65.762L53.408 65.1502C58.614 64.109 62.2354 62.0608 64.1734 59.055C65.1846 57.4358 65.7581 55.5817 65.8378 53.6742L54.1528 53.6742C53.1449 53.6742 52.1784 53.2739 51.4658 52.5612C50.7531 51.8486 50.3528 50.8821 50.3528 49.8742L50.3528 23.2743C50.3528 19.0829 53.7614 15.6743 57.9528 15.6743L80.7528 15.6743C81.7606 15.6743 82.7271 16.0746 83.4398 16.7872C84.1524 17.4999 84.5528 18.4664 84.5528 19.4743L84.5528 38.4743L84.5414 49.5664C84.5756 49.9882 85.2976 59.9822 78.127 67.7646ZM16.1528 15.6742L38.9528 15.6743C39.9606 15.6743 40.9271 16.0746 41.6398 16.7872C42.3524 17.4999 42.7528 18.4664 42.7528 19.4743L42.7528 38.4742L42.7414 49.5664C42.7756 49.9882 43.4976 59.9822 36.327 67.7646C30.9956 73.5444 22.9282 76.4742 12.3528 76.4742L8.55276 76.4742L8.55276 65.762L11.608 65.1502C16.814 64.109 20.4354 62.0608 22.3734 59.055C23.3846 57.4358 23.9581 55.5817 24.0378 53.6742L12.3528 53.6742C11.3449 53.6742 10.3784 53.2739 9.66575 52.5612C8.95311 51.8486 8.55276 50.8821 8.55276 49.8742L8.55276 23.2742C8.55276 19.0828 11.9614 15.6742 16.1528 15.6742Z" fill="white"/>
</g>
</svg>
